<svg xmlns="http://www.w3.org/2000/svg" xmlns:xlink="http://www.w3.org/1999/xlink" width="2000" zoomAndPan="magnify" viewBox="0 0 1500 1499.999933" height="2000" preserveAspectRatio="xMidYMid meet" version="1.0"><defs><g/><clipPath id="26865ec01e"><path d="M 0.160156 18 L 79 18 L 79 138 L 0.160156 138 Z M 0.160156 18 " clip-rule="nonzero"/></clipPath><clipPath id="615c2aa141"><path d="M 1038 51 L 1129 51 L 1129 183.71875 L 1038 183.71875 Z M 1038 51 " clip-rule="nonzero"/></clipPath><clipPath id="5d718a0cb5"><rect x="0" width="1137" y="0" height="184"/></clipPath><clipPath id="a5f863aaab"><path d="M 4 0.0390625 L 68 0.0390625 L 68 97 L 4 97 Z M 4 0.0390625 " clip-rule="nonzero"/></clipPath><clipPath id="6456e1f3a6"><path d="M 546 0.0390625 L 609 0.0390625 L 609 98 L 546 98 Z M 546 0.0390625 " clip-rule="nonzero"/></clipPath><clipPath id="9066fac616"><rect x="0" width="612" y="0" height="120"/></clipPath></defs><g transform="matrix(1, 0, 0, 1, 182, 657)"><g clip-path="url(#5d718a0cb5)"><g clip-path="url(#26865ec01e)"><g fill="#292222" fill-opacity="1"><g transform="translate(0.405608, 137.53124)"><g><path d="M 0.171875 -2.359375 C 6.015625 -7.984375 12.113281 -14.171875 18.46875 -20.921875 C 24.820312 -27.671875 30.78125 -34.753906 36.34375 -42.171875 C 41.914062 -49.597656 46.445312 -57.109375 49.9375 -64.703125 C 53.425781 -72.296875 55.171875 -79.691406 55.171875 -86.890625 C 55.171875 -90.597656 54.523438 -94.082031 53.234375 -97.34375 C 51.941406 -100.613281 49.832031 -103.285156 46.90625 -105.359375 C 43.976562 -107.441406 40.039062 -108.484375 35.09375 -108.484375 C 30.925781 -108.484375 26.929688 -107.609375 23.109375 -105.859375 C 19.285156 -104.117188 15.578125 -101.28125 11.984375 -97.34375 L 10.453125 -98.875 C 15.742188 -105.507812 21.285156 -110.566406 27.078125 -114.046875 C 32.867188 -117.535156 39.535156 -119.28125 47.078125 -119.28125 C 52.140625 -119.28125 56.722656 -118.210938 60.828125 -116.078125 C 64.929688 -113.941406 68.25 -110.789062 70.78125 -106.625 C 73.3125 -102.46875 74.578125 -97.351562 74.578125 -91.28125 C 74.578125 -85.3125 73.28125 -79.398438 70.6875 -73.546875 C 68.101562 -67.703125 64.644531 -61.96875 60.3125 -56.34375 C 55.988281 -50.726562 51.238281 -45.390625 46.0625 -40.328125 C 40.882812 -35.265625 35.679688 -30.484375 30.453125 -25.984375 C 25.222656 -21.484375 20.472656 -17.378906 16.203125 -13.671875 L 53.3125 -13.671875 C 58.9375 -13.671875 63.210938 -13.921875 66.140625 -14.421875 C 69.066406 -14.929688 71.257812 -15.859375 72.71875 -17.203125 C 74.175781 -18.554688 75.410156 -20.472656 76.421875 -22.953125 L 78.28125 -22.78125 L 75.75 0 L 0.171875 0 Z M 0.171875 -2.359375 "/></g></g></g></g><g fill="#292222" fill-opacity="1"><g transform="translate(85.948086, 137.53124)"><g><path d="M -3.546875 0 L -3.546875 -2.359375 C -0.953125 -3.265625 1.492188 -5.007812 3.796875 -7.59375 C 6.097656 -10.175781 8.375 -14.28125 10.625 -19.90625 L 42.1875 -98.1875 C 43.414062 -101.34375 43.300781 -104.382812 41.84375 -107.3125 L 39.65625 -112.03125 L 56.1875 -119.453125 L 98.03125 -19.734375 C 100.382812 -14.222656 102.660156 -10.175781 104.859375 -7.59375 C 107.054688 -5.007812 109.109375 -3.265625 111.015625 -2.359375 L 111.015625 0 L 80.3125 0 L 80.3125 -2.359375 C 83.125 -3.265625 84.160156 -5.007812 83.421875 -7.59375 C 82.691406 -10.175781 81.148438 -14.222656 78.796875 -19.734375 L 68.671875 -44.03125 L 23.625 -44.03125 L 13.828125 -19.90625 C 11.578125 -14.28125 10.675781 -10.117188 11.125 -7.421875 C 11.582031 -4.722656 13.21875 -3.035156 16.03125 -2.359375 L 16.03125 0 Z M 24.640625 -46.734375 L 67.484375 -46.734375 L 45.71875 -98.875 Z M 24.640625 -46.734375 "/></g></g></g><g fill="#292222" fill-opacity="1"><g transform="translate(194.43687, 137.53124)"><g><path d="M 4.71875 0 L 4.71875 -2.359375 C 7.53125 -3.265625 9.359375 -5.148438 10.203125 -8.015625 C 11.046875 -10.878906 11.46875 -15.347656 11.46875 -21.421875 L 11.46875 -60.234375 C 11.46875 -65.179688 10.878906 -68.441406 9.703125 -70.015625 C 8.523438 -71.585938 6.863281 -72.828125 4.71875 -73.734375 L 4.71875 -76.09375 L 27 -85.875 L 28.6875 -84.53125 L 28.6875 -70.359375 C 33.289062 -74.179688 38.570312 -77.664062 44.53125 -80.8125 C 50.5 -83.96875 56.742188 -85.546875 63.265625 -85.546875 C 69.234375 -85.546875 74.128906 -84.332031 77.953125 -81.90625 C 81.773438 -79.488281 84.472656 -75.582031 86.046875 -70.1875 C 90.660156 -74.007812 95.972656 -77.523438 101.984375 -80.734375 C 108.003906 -83.941406 114.332031 -85.546875 120.96875 -85.546875 C 128.726562 -85.546875 134.71875 -83.378906 138.9375 -79.046875 C 143.15625 -74.710938 145.265625 -67.597656 145.265625 -57.703125 L 145.265625 -21.421875 C 145.265625 -15.347656 145.6875 -10.878906 146.53125 -8.015625 C 147.375 -5.148438 149.203125 -3.265625 152.015625 -2.359375 L 152.015625 0 L 121.3125 0 L 121.3125 -2.359375 C 124.125 -3.265625 125.953125 -5.148438 126.796875 -8.015625 C 127.640625 -10.878906 128.0625 -15.347656 128.0625 -21.421875 L 128.0625 -54.671875 C 128.0625 -62.316406 126.738281 -68.25 124.09375 -72.46875 C 121.445312 -76.6875 116.972656 -78.796875 110.671875 -78.796875 C 106.742188 -78.796875 102.863281 -77.863281 99.03125 -76 C 95.207031 -74.144531 91.046875 -71.421875 86.546875 -67.828125 C 87.222656 -64.785156 87.5625 -61.410156 87.5625 -57.703125 L 87.5625 -21.421875 C 87.5625 -15.347656 87.984375 -10.878906 88.828125 -8.015625 C 89.671875 -5.148438 91.5 -3.265625 94.3125 -2.359375 L 94.3125 0 L 63.609375 0 L 63.609375 -2.359375 C 66.421875 -3.265625 68.25 -5.148438 69.09375 -8.015625 C 69.9375 -10.878906 70.359375 -15.347656 70.359375 -21.421875 L 70.359375 -54.671875 C 70.359375 -62.316406 69.035156 -68.25 66.390625 -72.46875 C 63.742188 -76.6875 59.273438 -78.796875 52.984375 -78.796875 C 49.046875 -78.796875 45.160156 -77.835938 41.328125 -75.921875 C 37.503906 -74.015625 33.289062 -71.203125 28.6875 -67.484375 L 28.6875 -21.421875 C 28.6875 -15.347656 29.109375 -10.878906 29.953125 -8.015625 C 30.796875 -5.148438 32.625 -3.265625 35.4375 -2.359375 L 35.4375 0 Z M 4.71875 0 "/></g></g></g><g fill="#292222" fill-opacity="1"><g transform="translate(348.986968, 137.53124)"><g><path d="M 61.578125 -98.1875 C 59.328125 -103.8125 57.101562 -107.914062 54.90625 -110.5 C 52.71875 -113.09375 50.671875 -114.835938 48.765625 -115.734375 L 48.765625 -118.109375 L 79.296875 -118.109375 L 79.296875 -115.734375 C 76.484375 -114.835938 75.441406 -113.09375 76.171875 -110.5 C 76.898438 -107.914062 78.390625 -103.8125 80.640625 -98.1875 L 88.921875 -78.109375 L 96.34375 -98.03125 C 98.476562 -103.65625 99.265625 -107.84375 98.703125 -110.59375 C 98.140625 -113.351562 96.394531 -115.066406 93.46875 -115.734375 L 93.46875 -118.109375 L 113.046875 -118.109375 L 113.046875 -115.734375 C 110.566406 -114.835938 108.226562 -113.066406 106.03125 -110.421875 C 103.84375 -107.785156 101.625 -103.65625 99.375 -98.03125 L 90.4375 -74.0625 L 112.03125 -21.59375 L 139.875 -98.03125 C 142.007812 -103.65625 142.796875 -107.84375 142.234375 -110.59375 C 141.671875 -113.351562 139.925781 -115.066406 137 -115.734375 L 137 -118.109375 L 156.578125 -118.109375 L 156.578125 -115.734375 C 154.097656 -114.835938 151.757812 -113.066406 149.5625 -110.421875 C 147.375 -107.785156 145.269531 -103.65625 143.25 -98.03125 L 107.640625 0 L 101.5625 0 L 79.296875 -54.5 L 57.203125 0 L 50.78125 0 L 13.328125 -98.03125 C 11.191406 -103.757812 9.082031 -107.914062 7 -110.5 C 4.914062 -113.09375 2.921875 -114.835938 1.015625 -115.734375 L 1.015625 -118.109375 L 31.546875 -118.109375 L 31.546875 -115.734375 C 28.734375 -114.835938 27.664062 -113.09375 28.34375 -110.5 C 29.019531 -107.914062 30.425781 -103.757812 32.5625 -98.03125 L 62.09375 -21.265625 L 77.609375 -58.890625 Z M 61.578125 -98.1875 "/></g></g></g><g fill="#292222" fill-opacity="1"><g transform="translate(491.220099, 137.53124)"><g><path d="M 50.28125 1.6875 C 44.769531 1.6875 39.34375 0.871094 34 -0.75 C 28.65625 -2.382812 23.816406 -4.914062 19.484375 -8.34375 C 15.148438 -11.78125 11.691406 -16.113281 9.109375 -21.34375 C 6.523438 -26.570312 5.234375 -32.785156 5.234375 -39.984375 C 5.234375 -46.847656 6.46875 -53.0625 8.9375 -58.625 C 11.414062 -64.195312 14.789062 -68.976562 19.0625 -72.96875 C 23.332031 -76.957031 28.164062 -80.050781 33.5625 -82.25 C 38.96875 -84.445312 44.539062 -85.546875 50.28125 -85.546875 C 55.5625 -85.546875 60.816406 -84.753906 66.046875 -83.171875 C 71.285156 -81.597656 76.125 -79.097656 80.5625 -75.671875 C 85.007812 -72.242188 88.550781 -67.882812 91.1875 -62.59375 C 93.832031 -57.3125 95.15625 -50.957031 95.15625 -43.53125 C 95.15625 -36.332031 93.773438 -29.921875 91.015625 -24.296875 C 88.265625 -18.671875 84.664062 -13.945312 80.21875 -10.125 C 75.78125 -6.300781 70.914062 -3.375 65.625 -1.34375 C 60.34375 0.675781 55.226562 1.6875 50.28125 1.6875 Z M 22.109375 -52.640625 C 22.109375 -47.691406 22.835938 -42.289062 24.296875 -36.4375 C 25.753906 -30.59375 27.914062 -25.054688 30.78125 -19.828125 C 33.65625 -14.597656 37.226562 -10.320312 41.5 -7 C 45.78125 -3.6875 50.675781 -2.03125 56.1875 -2.03125 C 61.695312 -2.03125 66.050781 -3.429688 69.25 -6.234375 C 72.457031 -9.046875 74.734375 -12.644531 76.078125 -17.03125 C 77.429688 -21.425781 78.109375 -25.984375 78.109375 -30.703125 C 78.109375 -36.109375 77.238281 -41.875 75.5 -48 C 73.757812 -54.132812 71.285156 -59.898438 68.078125 -65.296875 C 64.867188 -70.691406 61.015625 -74.992188 56.515625 -78.203125 C 52.015625 -81.410156 47.066406 -82.734375 41.671875 -82.171875 C 36.835938 -81.710938 32.984375 -80.050781 30.109375 -77.1875 C 27.242188 -74.320312 25.191406 -70.722656 23.953125 -66.390625 C 22.722656 -62.054688 22.109375 -57.472656 22.109375 -52.640625 Z M 22.109375 -52.640625 "/></g></g></g><g fill="#292222" fill-opacity="1"><g transform="translate(593.297395, 137.53124)"><g><path d="M 4.71875 0 L 4.71875 -2.359375 C 7.53125 -3.265625 9.359375 -5.148438 10.203125 -8.015625 C 11.046875 -10.878906 11.46875 -15.347656 11.46875 -21.421875 L 11.46875 -60.234375 C 11.46875 -65.179688 10.878906 -68.441406 9.703125 -70.015625 C 8.523438 -71.585938 6.863281 -72.828125 4.71875 -73.734375 L 4.71875 -76.09375 L 27 -85.875 L 28.6875 -84.53125 L 28.6875 -64.109375 C 31.269531 -70.179688 35.375 -75.128906 41 -78.953125 C 44.144531 -81.203125 47.375 -82.863281 50.6875 -83.9375 C 54.007812 -85.007812 57.695312 -85.546875 61.75 -85.546875 C 64.675781 -85.546875 67.207031 -85.148438 69.34375 -84.359375 C 71.476562 -83.566406 72.546875 -82.273438 72.546875 -80.484375 C 72.546875 -79.242188 72.125 -77.75 71.28125 -76 C 70.4375 -74.257812 69.171875 -72.742188 67.484375 -71.453125 C 65.796875 -70.160156 63.660156 -69.515625 61.078125 -69.515625 C 58.710938 -69.515625 55.8125 -69.9375 52.375 -70.78125 C 48.945312 -71.625 44.535156 -72.890625 39.140625 -74.578125 C 37.003906 -72.773438 34.78125 -70.128906 32.46875 -66.640625 C 30.164062 -63.148438 28.90625 -59.269531 28.6875 -55 L 28.6875 -21.421875 C 28.6875 -15.347656 29.109375 -10.878906 29.953125 -8.015625 C 30.796875 -5.148438 32.625 -3.265625 35.4375 -2.359375 L 35.4375 0 Z M 4.71875 0 "/></g></g></g><g fill="#292222" fill-opacity="1"><g transform="translate(669.391376, 137.53124)"><g><path d="M 5.0625 0 L 5.0625 -2.359375 C 7.875 -3.265625 9.703125 -5.148438 10.546875 -8.015625 C 11.390625 -10.878906 11.8125 -15.347656 11.8125 -21.421875 L 11.8125 -110.84375 C 11.8125 -115.789062 11.21875 -119.050781 10.03125 -120.625 C 8.851562 -122.207031 7.195312 -123.445312 5.0625 -124.34375 L 5.0625 -126.703125 L 27.328125 -136.5 L 29.015625 -135.140625 L 29.015625 -38.125 L 55.515625 -64.453125 C 60.910156 -69.847656 63.890625 -74.117188 64.453125 -77.265625 C 65.015625 -80.421875 64.453125 -82.28125 62.765625 -82.84375 L 62.765625 -84.359375 L 84.1875 -84.359375 L 84.1875 -82 C 81.488281 -81.207031 78.453125 -79.941406 75.078125 -78.203125 C 71.703125 -76.460938 67.878906 -73.453125 63.609375 -69.171875 L 52.8125 -58.375 L 72.890625 -22.109375 C 76.148438 -16.253906 79.269531 -11.5 82.25 -7.84375 C 85.226562 -4.1875 88.742188 -2.359375 92.796875 -2.359375 L 92.796875 0 L 79.296875 0 C 75.140625 0 71.09375 -1.488281 67.15625 -4.46875 C 63.21875 -7.445312 59.222656 -12.707031 55.171875 -20.25 L 41.171875 -46.90625 L 29.015625 -34.75 L 29.015625 -21.421875 C 29.015625 -15.347656 29.4375 -10.878906 30.28125 -8.015625 C 31.125 -5.148438 32.953125 -3.265625 35.765625 -2.359375 L 35.765625 0 Z M 5.0625 0 "/></g></g></g><g fill="#292222" fill-opacity="1"><g transform="translate(760.501733, 137.53124)"><g><path d="M 37.28125 1.34375 C 31.09375 1.34375 25.300781 0.554688 19.90625 -1.015625 C 14.507812 -2.585938 10.179688 -4.441406 6.921875 -6.578125 L 5.234375 -28.6875 L 6.921875 -29.015625 C 10.515625 -20.921875 15.265625 -14.3125 21.171875 -9.1875 C 27.078125 -4.070312 33.800781 -1.457031 41.34375 -1.34375 C 46.625 -1.238281 50.8125 -2.675781 53.90625 -5.65625 C 57 -8.632812 58.546875 -12.035156 58.546875 -15.859375 C 58.546875 -21.253906 56.492188 -25.300781 52.390625 -28 C 48.285156 -30.707031 42.578125 -33.1875 35.265625 -35.4375 C 29.410156 -37.226562 24.316406 -39.109375 19.984375 -41.078125 C 15.660156 -43.046875 12.34375 -45.578125 10.03125 -48.671875 C 7.726562 -51.765625 6.578125 -55.84375 6.578125 -60.90625 C 6.578125 -65.175781 7.726562 -69.195312 10.03125 -72.96875 C 12.34375 -76.738281 15.914062 -79.773438 20.75 -82.078125 C 25.582031 -84.390625 31.828125 -85.546875 39.484375 -85.546875 C 44.316406 -85.546875 49.09375 -85.148438 53.8125 -84.359375 C 58.539062 -83.566406 62.3125 -82.554688 65.125 -81.328125 L 65.96875 -62.765625 L 63.9375 -62.421875 C 61.125 -68.390625 57.210938 -73.335938 52.203125 -77.265625 C 47.203125 -81.203125 41.613281 -83.171875 35.4375 -83.171875 C 30.144531 -83.171875 25.894531 -81.929688 22.6875 -79.453125 C 19.488281 -76.984375 17.890625 -73.953125 17.890625 -70.359375 C 17.890625 -65.628906 19.941406 -62 24.046875 -59.46875 C 28.148438 -56.9375 33.96875 -54.378906 41.5 -51.796875 C 46 -50.335938 50.414062 -48.707031 54.75 -46.90625 C 59.082031 -45.101562 62.679688 -42.597656 65.546875 -39.390625 C 68.410156 -36.191406 69.84375 -31.722656 69.84375 -25.984375 C 69.84375 -21.710938 68.832031 -17.46875 66.8125 -13.25 C 64.789062 -9.03125 61.414062 -5.539062 56.6875 -2.78125 C 51.96875 -0.03125 45.5 1.34375 37.28125 1.34375 Z M 37.28125 1.34375 "/></g></g></g><g fill="#292222" fill-opacity="1"><g transform="translate(836.08954, 137.53124)"><g><path d="M 3.375 0 L 3.375 -2.359375 C 6.1875 -3.265625 8.015625 -5.148438 8.859375 -8.015625 C 9.703125 -10.878906 10.125 -15.347656 10.125 -21.421875 L 10.125 -110.84375 C 10.125 -115.789062 9.53125 -119.050781 8.34375 -120.625 C 7.164062 -122.207031 5.507812 -123.445312 3.375 -124.34375 L 3.375 -126.703125 L 25.640625 -136.5 L 27.328125 -135.140625 L 27.328125 -70.359375 C 31.941406 -74.179688 37.226562 -77.664062 43.1875 -80.8125 C 49.15625 -83.96875 55.398438 -85.546875 61.921875 -85.546875 C 69.679688 -85.546875 75.953125 -83.378906 80.734375 -79.046875 C 85.515625 -74.710938 87.90625 -67.597656 87.90625 -57.703125 L 87.90625 -21.421875 C 87.90625 -15.347656 88.328125 -10.878906 89.171875 -8.015625 C 90.015625 -5.148438 91.84375 -3.265625 94.65625 -2.359375 L 94.65625 0 L 63.9375 0 L 63.9375 -2.359375 C 66.75 -3.265625 68.578125 -5.148438 69.421875 -8.015625 C 70.265625 -10.878906 70.6875 -15.347656 70.6875 -21.421875 L 70.6875 -54.671875 C 70.6875 -62.316406 69.082031 -68.25 65.875 -72.46875 C 62.675781 -76.6875 57.925781 -78.796875 51.625 -78.796875 C 47.6875 -78.796875 43.804688 -77.835938 39.984375 -75.921875 C 36.160156 -74.015625 31.941406 -71.203125 27.328125 -67.484375 L 27.328125 -21.421875 C 27.328125 -15.347656 27.75 -10.878906 28.59375 -8.015625 C 29.4375 -5.148438 31.265625 -3.265625 34.078125 -2.359375 L 34.078125 0 Z M 3.375 0 "/></g></g></g><g fill="#292222" fill-opacity="1"><g transform="translate(934.117521, 137.53124)"><g><path d="M 50.28125 1.6875 C 44.769531 1.6875 39.34375 0.871094 34 -0.75 C 28.65625 -2.382812 23.816406 -4.914062 19.484375 -8.34375 C 15.148438 -11.78125 11.691406 -16.113281 9.109375 -21.34375 C 6.523438 -26.570312 5.234375 -32.785156 5.234375 -39.984375 C 5.234375 -46.847656 6.46875 -53.0625 8.9375 -58.625 C 11.414062 -64.195312 14.789062 -68.976562 19.0625 -72.96875 C 23.332031 -76.957031 28.164062 -80.050781 33.5625 -82.25 C 38.96875 -84.445312 44.539062 -85.546875 50.28125 -85.546875 C 55.5625 -85.546875 60.816406 -84.753906 66.046875 -83.171875 C 71.285156 -81.597656 76.125 -79.097656 80.5625 -75.671875 C 85.007812 -72.242188 88.550781 -67.882812 91.1875 -62.59375 C 93.832031 -57.3125 95.15625 -50.957031 95.15625 -43.53125 C 95.15625 -36.332031 93.773438 -29.921875 91.015625 -24.296875 C 88.265625 -18.671875 84.664062 -13.945312 80.21875 -10.125 C 75.78125 -6.300781 70.914062 -3.375 65.625 -1.34375 C 60.34375 0.675781 55.226562 1.6875 50.28125 1.6875 Z M 22.109375 -52.640625 C 22.109375 -47.691406 22.835938 -42.289062 24.296875 -36.4375 C 25.753906 -30.59375 27.914062 -25.054688 30.78125 -19.828125 C 33.65625 -14.597656 37.226562 -10.320312 41.5 -7 C 45.78125 -3.6875 50.675781 -2.03125 56.1875 -2.03125 C 61.695312 -2.03125 66.050781 -3.429688 69.25 -6.234375 C 72.457031 -9.046875 74.734375 -12.644531 76.078125 -17.03125 C 77.429688 -21.425781 78.109375 -25.984375 78.109375 -30.703125 C 78.109375 -36.109375 77.238281 -41.875 75.5 -48 C 73.757812 -54.132812 71.285156 -59.898438 68.078125 -65.296875 C 64.867188 -70.691406 61.015625 -74.992188 56.515625 -78.203125 C 52.015625 -81.410156 47.066406 -82.734375 41.671875 -82.171875 C 36.835938 -81.710938 32.984375 -80.050781 30.109375 -77.1875 C 27.242188 -74.320312 25.191406 -70.722656 23.953125 -66.390625 C 22.722656 -62.054688 22.109375 -57.472656 22.109375 -52.640625 Z M 22.109375 -52.640625 "/></g></g></g><g clip-path="url(#615c2aa141)"><g fill="#292222" fill-opacity="1"><g transform="translate(1032.989031, 137.53124)"><g><path d="M 50.609375 1.515625 C 46.785156 1.515625 43.101562 1.007812 39.5625 0 C 36.019531 -1.007812 32.785156 -2.359375 29.859375 -4.046875 L 29.859375 24.125 C 29.859375 30.195312 30.28125 34.664062 31.125 37.53125 C 31.96875 40.40625 33.796875 42.289062 36.609375 43.1875 L 36.609375 45.546875 L 5.90625 45.546875 L 5.90625 43.1875 C 8.71875 42.289062 10.546875 40.40625 11.390625 37.53125 C 12.234375 34.664062 12.65625 30.195312 12.65625 24.125 L 12.65625 -60.234375 C 12.65625 -65.179688 12.0625 -68.441406 10.875 -70.015625 C 9.695312 -71.585938 8.039062 -72.828125 5.90625 -73.734375 L 5.90625 -76.09375 L 28.171875 -85.875 L 29.859375 -84.53125 L 29.859375 -73.5625 C 34.359375 -76.707031 39.28125 -79.488281 44.625 -81.90625 C 49.96875 -84.332031 55.5625 -85.546875 61.40625 -85.546875 C 68.382812 -85.546875 74.429688 -83.769531 79.546875 -80.21875 C 84.671875 -76.675781 88.632812 -71.835938 91.4375 -65.703125 C 94.25 -59.578125 95.65625 -52.632812 95.65625 -44.875 C 95.65625 -36.332031 93.828125 -28.546875 90.171875 -21.515625 C 86.523438 -14.484375 81.328125 -8.882812 74.578125 -4.71875 C 67.828125 -0.5625 59.835938 1.515625 50.609375 1.515625 Z M 29.859375 -28.171875 C 29.859375 -25.253906 30.703125 -22.25 32.390625 -19.15625 C 34.078125 -16.0625 36.269531 -13.191406 38.96875 -10.546875 C 41.664062 -7.898438 44.617188 -5.757812 47.828125 -4.125 C 51.035156 -2.5 54.210938 -1.6875 57.359375 -1.6875 C 63.429688 -1.6875 68.097656 -3.144531 71.359375 -6.0625 C 74.628906 -8.988281 76.851562 -12.785156 78.03125 -17.453125 C 79.207031 -22.128906 79.796875 -27 79.796875 -32.0625 C 79.796875 -35.09375 79.539062 -38.632812 79.03125 -42.6875 C 78.53125 -46.738281 77.660156 -50.84375 76.421875 -55 C 75.191406 -59.164062 73.421875 -63.046875 71.109375 -66.640625 C 68.804688 -70.242188 65.910156 -73.140625 62.421875 -75.328125 C 58.941406 -77.523438 54.671875 -78.625 49.609375 -78.625 C 45.890625 -78.625 42.398438 -77.863281 39.140625 -76.34375 C 35.878906 -74.820312 32.785156 -72.9375 29.859375 -70.6875 Z M 29.859375 -28.171875 "/></g></g></g></g></g></g><g transform="matrix(1, 0, 0, 1, 888, 1019)"><g clip-path="url(#9066fac616)"><g clip-path="url(#a5f863aaab)"><g fill="#292222" fill-opacity="1"><g transform="translate(1.251726, 95.617383)"><g><path d="M 34.125 1.0625 C 29.882812 1.0625 25.976562 0.214844 22.40625 -1.46875 C 18.84375 -3.15625 15.960938 -5.210938 13.765625 -7.640625 L 8.9375 0 L 7.640625 0 L 7.640625 -77.296875 C 7.640625 -80.753906 7.226562 -83.03125 6.40625 -84.125 C 5.582031 -85.21875 4.425781 -86.082031 2.9375 -86.71875 L 2.9375 -88.359375 L 18.46875 -95.1875 L 19.65625 -94.25 L 19.65625 -52.703125 C 22.632812 -54.585938 25.789062 -56.21875 29.125 -57.59375 C 32.457031 -58.96875 35.804688 -59.65625 39.171875 -59.65625 C 44.742188 -59.65625 49.53125 -58.300781 53.53125 -55.59375 C 57.53125 -52.882812 60.609375 -49.375 62.765625 -45.0625 C 64.921875 -40.75 66 -36.160156 66 -31.296875 C 66 -25.335938 64.703125 -19.90625 62.109375 -15 C 59.523438 -10.09375 55.84375 -6.1875 51.0625 -3.28125 C 46.28125 -0.382812 40.632812 1.0625 34.125 1.0625 Z M 19.65625 -20.703125 C 19.65625 -18.429688 20.222656 -16.15625 21.359375 -13.875 C 22.492188 -11.601562 23.984375 -9.523438 25.828125 -7.640625 C 27.671875 -5.765625 29.726562 -4.253906 32 -3.109375 C 34.28125 -1.972656 36.515625 -1.40625 38.703125 -1.40625 C 42.859375 -1.40625 46.070312 -2.40625 48.34375 -4.40625 C 50.625 -6.40625 52.210938 -9.015625 53.109375 -12.234375 C 54.015625 -15.453125 54.46875 -18.828125 54.46875 -22.359375 C 54.46875 -24.472656 54.253906 -26.941406 53.828125 -29.765625 C 53.398438 -32.585938 52.675781 -35.46875 51.65625 -38.40625 C 50.632812 -41.351562 49.257812 -44.082031 47.53125 -46.59375 C 45.800781 -49.101562 43.660156 -51.125 41.109375 -52.65625 C 38.566406 -54.1875 35.53125 -54.953125 32 -54.953125 C 29.800781 -54.953125 27.679688 -54.578125 25.640625 -53.828125 C 23.609375 -53.078125 21.613281 -52.078125 19.65625 -50.828125 Z M 19.65625 -20.703125 "/></g></g></g></g><g fill="#292222" fill-opacity="1"><g transform="translate(69.135572, 95.617383)"><g><path d="M 4.234375 22.703125 C 1.804688 22.785156 -0.226562 22.472656 -1.875 21.765625 C -3.53125 21.054688 -4.359375 20.113281 -4.359375 18.9375 C -4.359375 18.15625 -4.023438 17.195312 -3.359375 16.0625 C -2.691406 14.925781 -1.691406 13.882812 -0.359375 12.9375 C 0.972656 12 2.546875 11.53125 4.359375 11.53125 C 6.078125 11.53125 8.40625 11.742188 11.34375 12.171875 C 14.289062 12.609375 17.296875 13.097656 20.359375 13.640625 C 21.765625 12.078125 23.171875 10.175781 24.578125 7.9375 C 25.992188 5.707031 27.332031 3.257812 28.59375 0.59375 L 8.828125 -45.0625 C 7.179688 -48.976562 5.570312 -51.816406 4 -53.578125 C 2.425781 -55.347656 0.972656 -56.550781 -0.359375 -57.1875 L -0.359375 -58.828125 L 20.46875 -58.828125 L 20.46875 -57.1875 C 18.507812 -56.550781 17.800781 -55.367188 18.34375 -53.640625 C 18.894531 -51.921875 20.035156 -49.101562 21.765625 -45.1875 L 35.171875 -14.59375 L 48.359375 -45.0625 C 50.003906 -48.976562 50.707031 -51.859375 50.46875 -53.703125 C 50.238281 -55.546875 49.101562 -56.707031 47.0625 -57.1875 L 47.0625 -58.828125 L 60.46875 -58.828125 L 60.46875 -57.1875 C 58.75 -56.550781 57.046875 -55.367188 55.359375 -53.640625 C 53.671875 -51.921875 51.960938 -49.101562 50.234375 -45.1875 L 32.234375 -3.53125 C 29.253906 3.289062 26.3125 8.601562 23.40625 12.40625 C 20.507812 16.21875 17.488281 18.867188 14.34375 20.359375 C 11.207031 21.847656 7.835938 22.628906 4.234375 22.703125 Z M 4.234375 22.703125 "/></g></g></g><g fill="#292222" fill-opacity="1"><g transform="translate(128.548679, 95.617383)"><g/></g></g><g fill="#292222" fill-opacity="1"><g transform="translate(152.078641, 95.617383)"><g><path d="M 33.65625 1.171875 C 27.613281 1.171875 22.003906 0.332031 16.828125 -1.34375 C 11.648438 -3.03125 7.570312 -4.972656 4.59375 -7.171875 L 4.125 -24.828125 L 5.640625 -25.0625 C 7.296875 -20.59375 9.550781 -16.570312 12.40625 -13 C 15.269531 -9.425781 18.738281 -6.582031 22.8125 -4.46875 C 26.894531 -2.351562 31.523438 -1.296875 36.703125 -1.296875 C 39.453125 -1.296875 42.003906 -1.863281 44.359375 -3 C 46.710938 -4.132812 48.632812 -5.800781 50.125 -8 C 51.613281 -10.195312 52.359375 -12.90625 52.359375 -16.125 C 52.359375 -19.019531 51.535156 -21.546875 49.890625 -23.703125 C 48.242188 -25.859375 46.144531 -27.738281 43.59375 -29.34375 C 41.039062 -30.957031 38.351562 -32.375 35.53125 -33.59375 C 32.707031 -34.8125 30.117188 -35.890625 27.765625 -36.828125 C 23.765625 -38.554688 20.078125 -40.28125 16.703125 -42 C 13.328125 -43.726562 10.617188 -45.941406 8.578125 -48.640625 C 6.546875 -51.347656 5.53125 -54.976562 5.53125 -59.53125 C 5.53125 -66.820312 8.253906 -72.585938 13.703125 -76.828125 C 19.160156 -81.066406 26.515625 -83.1875 35.765625 -83.1875 C 40.160156 -83.1875 44.257812 -82.753906 48.0625 -81.890625 C 51.863281 -81.023438 55.296875 -79.804688 58.359375 -78.234375 L 58.828125 -62.953125 L 57.53125 -62.46875 C 55.101562 -68.507812 51.554688 -73.140625 46.890625 -76.359375 C 42.222656 -79.578125 37.023438 -81.1875 31.296875 -81.1875 C 26.585938 -81.1875 22.601562 -79.867188 19.34375 -77.234375 C 16.09375 -74.609375 14.46875 -70.984375 14.46875 -66.359375 C 14.46875 -63.765625 15.113281 -61.503906 16.40625 -59.578125 C 17.707031 -57.660156 19.4375 -55.992188 21.59375 -54.578125 C 23.75 -53.171875 26.0625 -51.9375 28.53125 -50.875 C 31 -49.820312 33.410156 -48.828125 35.765625 -47.890625 C 38.742188 -46.710938 41.78125 -45.457031 44.875 -44.125 C 47.976562 -42.789062 50.820312 -41.21875 53.40625 -39.40625 C 56 -37.601562 58.078125 -35.445312 59.640625 -32.9375 C 61.210938 -30.425781 62 -27.410156 62 -23.890625 C 62 -19.890625 61.175781 -16.316406 59.53125 -13.171875 C 57.882812 -10.035156 55.6875 -7.410156 52.9375 -5.296875 C 50.195312 -3.179688 47.140625 -1.570312 43.765625 -0.46875 C 40.390625 0.621094 37.019531 1.171875 33.65625 1.171875 Z M 33.65625 1.171875 "/></g></g></g><g fill="#292222" fill-opacity="1"><g transform="translate(217.138931, 95.617383)"><g><path d="M 22.125 1.171875 C 18.125 1.171875 15.082031 -0.195312 13 -2.9375 C 10.925781 -5.6875 9.890625 -10.238281 9.890625 -16.59375 L 9.890625 -56.953125 L 2.359375 -56.953125 L 2.359375 -58.828125 L 20 -74.359375 L 21.890625 -74.359375 L 21.890625 -58.828125 L 40.125 -58.828125 L 39.65625 -56.953125 L 21.890625 -56.953125 L 21.890625 -16.46875 C 21.890625 -12.863281 22.554688 -10.21875 23.890625 -8.53125 C 25.222656 -6.84375 27.179688 -6 29.765625 -6 C 31.097656 -6 32.6875 -6.367188 34.53125 -7.109375 C 36.375 -7.859375 38.273438 -9.453125 40.234375 -11.890625 L 41.421875 -10.703125 C 38.273438 -7.097656 35.148438 -4.21875 32.046875 -2.0625 C 28.953125 0.0898438 25.644531 1.171875 22.125 1.171875 Z M 22.125 1.171875 "/></g></g></g><g fill="#292222" fill-opacity="1"><g transform="translate(259.022242, 95.617383)"><g><path d="M 48.234375 0 C 45.097656 0 43.53125 -1.566406 43.53125 -4.703125 L 43.53125 -24.125 C 42.4375 -19.570312 40.789062 -15.375 38.59375 -11.53125 C 36.394531 -7.6875 33.6875 -4.609375 30.46875 -2.296875 C 27.257812 0.0117188 23.613281 1.171875 19.53125 1.171875 C 15.21875 1.171875 11.472656 -0.160156 8.296875 -2.828125 C 5.117188 -5.492188 3.53125 -9.296875 3.53125 -14.234375 C 3.53125 -18.316406 4.765625 -21.628906 7.234375 -24.171875 C 9.703125 -26.722656 12.972656 -28.859375 17.046875 -30.578125 C 21.128906 -32.304688 25.601562 -33.835938 30.46875 -35.171875 L 43.53125 -38.9375 C 43.457031 -44.75 41.988281 -48.890625 39.125 -51.359375 C 36.257812 -53.828125 32.628906 -55.0625 28.234375 -55.0625 C 24.941406 -55.0625 21.6875 -54.296875 18.46875 -52.765625 C 15.25 -51.234375 12.148438 -48.664062 9.171875 -45.0625 L 8 -46.125 C 11.289062 -50.195312 15.171875 -53.46875 19.640625 -55.9375 C 24.117188 -58.414062 29.023438 -59.65625 34.359375 -59.65625 C 41.492188 -59.65625 46.765625 -57.789062 50.171875 -54.0625 C 53.585938 -50.332031 55.296875 -44.863281 55.296875 -37.65625 L 55.296875 -14.9375 C 55.296875 -10.707031 55.585938 -7.59375 56.171875 -5.59375 C 56.765625 -3.59375 58.039062 -2.273438 60 -1.640625 L 60 0 Z M 14.46875 -18.359375 C 14.46875 -14.515625 15.625 -11.726562 17.9375 -10 C 20.25 -8.269531 22.738281 -7.40625 25.40625 -7.40625 C 28.3125 -7.40625 30.878906 -8.285156 33.109375 -10.046875 C 35.347656 -11.816406 37.234375 -14.09375 38.765625 -16.875 C 40.296875 -19.664062 41.472656 -22.585938 42.296875 -25.640625 C 43.117188 -28.703125 43.53125 -31.566406 43.53125 -34.234375 L 43.53125 -37.296875 L 30.9375 -33.65625 C 29.53125 -33.257812 27.90625 -32.6875 26.0625 -31.9375 C 24.21875 -31.195312 22.410156 -30.238281 20.640625 -29.0625 C 18.878906 -27.882812 17.410156 -26.410156 16.234375 -24.640625 C 15.054688 -22.878906 14.46875 -20.785156 14.46875 -18.359375 Z M 14.46875 -18.359375 "/></g></g></g><g fill="#292222" fill-opacity="1"><g transform="translate(321.376594, 95.617383)"><g><path d="M 3.296875 0 L 3.296875 -1.640625 C 5.253906 -2.273438 6.523438 -3.59375 7.109375 -5.59375 C 7.703125 -7.59375 8 -10.707031 8 -14.9375 L 8 -42 C 8 -45.457031 7.585938 -47.734375 6.765625 -48.828125 C 5.941406 -49.921875 4.785156 -50.785156 3.296875 -51.421875 L 3.296875 -53.0625 L 18.828125 -59.890625 L 20 -58.953125 L 20 -49.0625 C 23.21875 -51.726562 26.90625 -54.160156 31.0625 -56.359375 C 35.21875 -58.554688 39.570312 -59.65625 44.125 -59.65625 C 49.53125 -59.65625 53.898438 -58.144531 57.234375 -55.125 C 60.566406 -52.101562 62.234375 -47.140625 62.234375 -40.234375 L 62.234375 -14.9375 C 62.234375 -10.707031 62.523438 -7.59375 63.109375 -5.59375 C 63.703125 -3.59375 64.984375 -2.273438 66.953125 -1.640625 L 66.953125 0 L 45.53125 0 L 45.53125 -1.640625 C 47.488281 -2.273438 48.757812 -3.59375 49.34375 -5.59375 C 49.9375 -7.59375 50.234375 -10.707031 50.234375 -14.9375 L 50.234375 -38.125 C 50.234375 -43.457031 49.113281 -47.59375 46.875 -50.53125 C 44.644531 -53.476562 41.332031 -54.953125 36.9375 -54.953125 C 34.195312 -54.953125 31.492188 -54.28125 28.828125 -52.9375 C 26.160156 -51.601562 23.21875 -49.644531 20 -47.0625 L 20 -14.9375 C 20 -10.707031 20.289062 -7.59375 20.875 -5.59375 C 21.46875 -3.59375 22.742188 -2.273438 24.703125 -1.640625 L 24.703125 0 Z M 3.296875 0 "/></g></g></g><g fill="#292222" fill-opacity="1"><g transform="translate(390.672268, 95.617383)"><g><path d="M 4.125 0 L 4.125 -1.640625 C 6.082031 -2.273438 7.351562 -3.59375 7.9375 -5.59375 C 8.53125 -7.59375 8.828125 -10.707031 8.828125 -14.9375 L 8.828125 -55.421875 L 2 -55.421875 L 2.59375 -57.296875 L 8.828125 -57.296875 C 9.054688 -61.609375 10.25 -65.820312 12.40625 -69.9375 C 14.5625 -74.0625 17.425781 -77.769531 21 -81.0625 C 24.570312 -84.351562 28.628906 -86.976562 33.171875 -88.9375 C 37.722656 -90.90625 42.472656 -91.890625 47.421875 -91.890625 C 49.929688 -91.890625 51.945312 -91.632812 53.46875 -91.125 C 55 -90.613281 55.765625 -89.769531 55.765625 -88.59375 C 55.765625 -87.8125 55.390625 -86.789062 54.640625 -85.53125 C 53.898438 -84.28125 52.882812 -83.164062 51.59375 -82.1875 C 50.300781 -81.207031 48.75 -80.71875 46.9375 -80.71875 C 43.957031 -80.71875 41.054688 -81.085938 38.234375 -81.828125 C 35.410156 -82.578125 32.15625 -83.65625 28.46875 -85.0625 C 27.375 -84.507812 26.238281 -83.664062 25.0625 -82.53125 C 23.882812 -81.394531 22.882812 -79.707031 22.0625 -77.46875 C 21.238281 -75.238281 20.828125 -72.082031 20.828125 -68 L 20.828125 -57.296875 L 35.53125 -57.296875 L 34.9375 -55.421875 L 20.828125 -55.421875 L 20.828125 -14.9375 C 20.828125 -10.707031 21.117188 -7.59375 21.703125 -5.59375 C 22.296875 -3.59375 23.570312 -2.273438 25.53125 -1.640625 L 25.53125 0 Z M 4.125 0 "/></g></g></g><g fill="#292222" fill-opacity="1"><g transform="translate(424.202386, 95.617383)"><g><path d="M 35.0625 1.171875 C 31.21875 1.171875 27.429688 0.601562 23.703125 -0.53125 C 19.984375 -1.664062 16.613281 -3.425781 13.59375 -5.8125 C 10.570312 -8.207031 8.15625 -11.226562 6.34375 -14.875 C 4.539062 -18.53125 3.640625 -22.867188 3.640625 -27.890625 C 3.640625 -32.671875 4.503906 -37 6.234375 -40.875 C 7.960938 -44.757812 10.316406 -48.09375 13.296875 -50.875 C 16.273438 -53.664062 19.644531 -55.828125 23.40625 -57.359375 C 27.175781 -58.890625 31.0625 -59.65625 35.0625 -59.65625 C 38.75 -59.65625 42.414062 -59.101562 46.0625 -58 C 49.707031 -56.90625 53.078125 -55.160156 56.171875 -52.765625 C 59.273438 -50.378906 61.75 -47.34375 63.59375 -43.65625 C 65.4375 -39.96875 66.359375 -35.535156 66.359375 -30.359375 C 66.359375 -25.335938 65.394531 -20.863281 63.46875 -16.9375 C 61.550781 -13.019531 59.039062 -9.726562 55.9375 -7.0625 C 52.84375 -4.394531 49.453125 -2.351562 45.765625 -0.9375 C 42.078125 0.464844 38.507812 1.171875 35.0625 1.171875 Z M 15.40625 -36.703125 C 15.40625 -33.253906 15.914062 -29.488281 16.9375 -25.40625 C 17.957031 -21.332031 19.46875 -17.472656 21.46875 -13.828125 C 23.46875 -10.179688 25.957031 -7.195312 28.9375 -4.875 C 31.925781 -2.5625 35.335938 -1.40625 39.171875 -1.40625 C 43.015625 -1.40625 46.054688 -2.382812 48.296875 -4.34375 C 50.535156 -6.3125 52.125 -8.820312 53.0625 -11.875 C 54 -14.9375 54.46875 -18.113281 54.46875 -21.40625 C 54.46875 -25.175781 53.859375 -29.195312 52.640625 -33.46875 C 51.429688 -37.75 49.707031 -41.769531 47.46875 -45.53125 C 45.238281 -49.300781 42.550781 -52.300781 39.40625 -54.53125 C 36.269531 -56.769531 32.820312 -57.691406 29.0625 -57.296875 C 25.6875 -56.984375 23 -55.828125 21 -53.828125 C 19 -51.828125 17.566406 -49.316406 16.703125 -46.296875 C 15.835938 -43.273438 15.40625 -40.078125 15.40625 -36.703125 Z M 15.40625 -36.703125 "/></g></g></g><g fill="#292222" fill-opacity="1"><g transform="translate(495.38046, 95.617383)"><g><path d="M 3.296875 0 L 3.296875 -1.640625 C 5.253906 -2.273438 6.523438 -3.59375 7.109375 -5.59375 C 7.703125 -7.59375 8 -10.707031 8 -14.9375 L 8 -42 C 8 -45.457031 7.585938 -47.734375 6.765625 -48.828125 C 5.941406 -49.921875 4.785156 -50.785156 3.296875 -51.421875 L 3.296875 -53.0625 L 18.828125 -59.890625 L 20 -58.953125 L 20 -44.703125 C 21.800781 -48.941406 24.664062 -52.394531 28.59375 -55.0625 C 30.789062 -56.632812 33.046875 -57.789062 35.359375 -58.53125 C 37.671875 -59.28125 40.238281 -59.65625 43.0625 -59.65625 C 45.101562 -59.65625 46.867188 -59.378906 48.359375 -58.828125 C 49.847656 -58.273438 50.59375 -57.375 50.59375 -56.125 C 50.59375 -55.257812 50.296875 -54.21875 49.703125 -53 C 49.117188 -51.789062 48.238281 -50.734375 47.0625 -49.828125 C 45.882812 -48.921875 44.394531 -48.46875 42.59375 -48.46875 C 40.945312 -48.46875 38.925781 -48.757812 36.53125 -49.34375 C 34.132812 -49.9375 31.054688 -50.820312 27.296875 -52 C 25.804688 -50.75 24.253906 -48.90625 22.640625 -46.46875 C 21.035156 -44.039062 20.15625 -41.335938 20 -38.359375 L 20 -14.9375 C 20 -10.707031 20.289062 -7.59375 20.875 -5.59375 C 21.46875 -3.59375 22.742188 -2.273438 24.703125 -1.640625 L 24.703125 0 Z M 3.296875 0 "/></g></g></g><g clip-path="url(#6456e1f3a6)"><g fill="#292222" fill-opacity="1"><g transform="translate(542.67559, 95.617383)"><g><path d="M 28.703125 1.40625 C 23.765625 1.332031 19.410156 -0.0703125 15.640625 -2.8125 C 11.878906 -5.5625 8.9375 -9.09375 6.8125 -13.40625 C 4.695312 -17.726562 3.640625 -22.316406 3.640625 -27.171875 C 3.640625 -33.210938 4.953125 -38.664062 7.578125 -43.53125 C 10.210938 -48.394531 13.976562 -52.273438 18.875 -55.171875 C 23.78125 -58.078125 29.644531 -59.53125 36.46875 -59.53125 C 38.976562 -59.53125 41.269531 -59.253906 43.34375 -58.703125 C 45.425781 -58.160156 47.332031 -57.457031 49.0625 -56.59375 L 49.0625 -77.296875 C 49.0625 -80.753906 48.648438 -83.03125 47.828125 -84.125 C 47.003906 -85.21875 45.847656 -86.082031 44.359375 -86.71875 L 44.359375 -88.359375 L 59.890625 -95.1875 L 61.0625 -94.25 L 61.0625 -14.9375 C 61.0625 -10.707031 61.351562 -7.59375 61.9375 -5.59375 C 62.53125 -3.59375 63.804688 -2.273438 65.765625 -1.640625 L 65.765625 0 L 53.765625 0 C 50.628906 0 49.0625 -1.566406 49.0625 -4.703125 L 49.0625 -9.640625 C 47.570312 -7.921875 45.804688 -6.195312 43.765625 -4.46875 C 41.722656 -2.738281 39.445312 -1.304688 36.9375 -0.171875 C 34.425781 0.960938 31.679688 1.488281 28.703125 1.40625 Z M 15.171875 -36.703125 C 15.171875 -33.878906 15.460938 -30.703125 16.046875 -27.171875 C 16.640625 -23.648438 17.703125 -20.257812 19.234375 -17 C 20.765625 -13.75 22.882812 -11.039062 25.59375 -8.875 C 28.300781 -6.71875 31.769531 -5.640625 36 -5.640625 C 38.59375 -5.640625 40.984375 -6.265625 43.171875 -7.515625 C 45.367188 -8.773438 47.332031 -10.3125 49.0625 -12.125 L 49.0625 -38.125 C 49.0625 -41.019531 48.273438 -43.921875 46.703125 -46.828125 C 45.140625 -49.734375 43.039062 -52.164062 40.40625 -54.125 C 37.78125 -56.082031 34.820312 -57.0625 31.53125 -57.0625 C 27.21875 -57.0625 23.882812 -56 21.53125 -53.875 C 19.175781 -51.757812 17.523438 -49.15625 16.578125 -46.0625 C 15.640625 -42.96875 15.171875 -39.847656 15.171875 -36.703125 Z M 15.171875 -36.703125 "/></g></g></g></g></g></g></svg>