<svg xmlns="http://www.w3.org/2000/svg" xmlns:xlink="http://www.w3.org/1999/xlink" width="2000" zoomAndPan="magnify" viewBox="0 0 1500 1499.999933" height="2000" preserveAspectRatio="xMidYMid meet" version="1.0"><defs><g/><clipPath id="5be1b638e9"><path d="M 0.078125 1.019531 L 335.3125 1.019531 L 335.3125 335.707031 L 0.078125 335.707031 Z M 0.078125 1.019531 " clip-rule="nonzero"/></clipPath><clipPath id="bc14c6ca2c"><path d="M 227 240 L 261 240 L 261 334.707031 L 227 334.707031 Z M 227 240 " clip-rule="nonzero"/></clipPath><clipPath id="014bf525ad"><path d="M 135 0.0195312 L 335.3125 0.0195312 L 335.3125 334.707031 L 135 334.707031 Z M 135 0.0195312 " clip-rule="nonzero"/></clipPath><clipPath id="9452c27dea"><path d="M 0.078125 0.0195312 L 239 0.0195312 L 239 334.707031 L 0.078125 334.707031 Z M 0.078125 0.0195312 " clip-rule="nonzero"/></clipPath><clipPath id="10cb894f0e"><path d="M 0.078125 235 L 97 235 L 97 334.707031 L 0.078125 334.707031 Z M 0.078125 235 " clip-rule="nonzero"/></clipPath><clipPath id="ef00c8c697"><rect x="0" width="336" y="0" height="335"/></clipPath><clipPath id="f7532aa435"><path d="M 352 1 L 1173.917969 1 L 1173.917969 266 L 352 266 Z M 352 1 " clip-rule="nonzero"/></clipPath><clipPath id="59787621f2"><rect x="0" width="822" y="0" height="265"/></clipPath><clipPath id="e556392193"><rect x="0" width="686" y="0" height="51"/></clipPath><clipPath id="9699a11890"><rect x="0" width="1174" y="0" height="337"/></clipPath></defs><g transform="matrix(1, 0, 0, 1, 160, 581)"><g clip-path="url(#9699a11890)"><g clip-path="url(#5be1b638e9)"><g transform="matrix(1, 0, 0, 1, 0, 1)"><g clip-path="url(#ef00c8c697)"><g clip-path="url(#bc14c6ca2c)"><path fill="#7b7272" d="M 227.242188 240.882812 C 240.175781 270.449219 249.207031 284.203125 249.410156 335.660156 L 259.75 335.660156 C 263.820312 281.550781 227.777344 241.46875 227.242188 240.882812 Z M 227.242188 240.882812 " fill-opacity="1" fill-rule="nonzero"/></g><path fill="#7b7272" d="M 272.597656 90.960938 L 267.105469 84.25 L 224.390625 84.25 L 268.632812 101.640625 Z M 272.597656 90.960938 " fill-opacity="1" fill-rule="nonzero"/><g clip-path="url(#014bf525ad)"><path fill="#7b7272" d="M 286.023438 335.660156 L 335.949219 335.660156 L 335.949219 0.0195312 L 135.203125 0.0195312 C 138.378906 0.484375 140.179688 0.847656 140.179688 0.847656 L 175.167969 43.972656 C 237.816406 61.871094 282.972656 88.71875 282.972656 88.71875 L 262.226562 144.457031 L 247.171875 146.898438 C 247.171875 146.898438 243.917969 156.257812 260.597656 169.273438 C 277.277344 182.292969 273.816406 197.753906 273.816406 197.753906 C 246.613281 212.257812 195.460938 201.617188 194.503906 201.414062 C 282.359375 228.882812 286.023438 335.660156 286.023438 335.660156 Z M 286.023438 335.660156 " fill-opacity="1" fill-rule="nonzero"/></g><path fill="#7b7272" d="M 122.484375 29.632812 L 123.398438 42.144531 L 84.648438 44.890625 L 168.554688 66.246094 L 136.214844 54.042969 L 135.90625 43.058594 Z M 122.484375 29.632812 " fill-opacity="1" fill-rule="nonzero"/><g clip-path="url(#9452c27dea)"><path fill="#7b7272" d="M 139.136719 157.925781 C 85.742188 212.84375 0.304688 162.5 0.304688 162.5 L 0.304688 210.605469 C 12.855469 225.753906 32.632812 243.179688 63.238281 257.089844 C 96.570312 272.238281 118.179688 307.546875 130.734375 335.660156 L 167.214844 335.660156 C 135.644531 269.835938 66.164062 239.058594 65.53125 238.78125 C 134.761719 257.003906 175.707031 313.414062 189.527344 335.660156 L 228.054688 335.660156 C 224.898438 251.027344 179.679688 209.761719 143.671875 190.230469 C 191.316406 200.648438 237.410156 192.457031 237.410156 192.457031 C 210.820312 193.980469 200.101562 187.253906 196.234375 179.648438 C 192.035156 171.402344 195.636719 161.335938 203.941406 157.257812 C 221.671875 148.550781 238.226562 147.300781 238.226562 147.300781 C 218.105469 147.195312 201.371094 153.261719 190.246094 158.867188 C 184.492188 161.761719 177.679688 161.90625 171.914062 159.035156 C 149.175781 147.714844 173.539062 106.214844 173.539062 106.214844 C 149.539062 107.03125 124.316406 122.082031 124.316406 122.082031 C 60.242188 153.203125 -9.933594 120.859375 15.082031 50.6875 C 27.015625 17.21875 56.019531 4.335938 83.101562 0.0195312 L 0.308594 0.0195312 L 0.308594 136.183594 C 74.359375 192.769531 138.585938 158.226562 139.136719 157.925781 Z M 139.136719 157.925781 " fill-opacity="1" fill-rule="nonzero"/></g><g clip-path="url(#10cb894f0e)"><path fill="#7b7272" d="M 40.734375 268.53125 C 68.863281 284.46875 86.445312 312.371094 96.871094 335.660156 L 0.304688 335.660156 L 0.304688 235.023438 C 9.191406 246.476562 22.054688 257.949219 40.734375 268.53125 Z M 40.734375 268.53125 " fill-opacity="1" fill-rule="nonzero"/></g></g></g></g><g clip-path="url(#f7532aa435)"><g transform="matrix(1, 0, 0, 1, 352, 1)"><g clip-path="url(#59787621f2)"><g fill="#7b7272" fill-opacity="1"><g transform="translate(0.743178, 207.824336)"><g><path d="M 61.28125 0 L 45.125 0 L 45.125 -123.875 L 1.703125 -123.875 L 1.703125 -138.03125 L 104.515625 -138.03125 L 104.515625 -123.875 L 61.28125 -123.875 Z M 61.28125 0 "/></g></g><g transform="translate(107.240882, 207.824336)"><g><path d="M 32.1875 -146.90625 L 32.1875 -103 C 32.1875 -100.488281 32.125 -97.957031 32 -95.40625 C 31.875 -92.851562 31.65625 -90.507812 31.34375 -88.375 L 32.390625 -88.375 C 34.523438 -92.019531 37.242188 -95.085938 40.546875 -97.578125 C 43.847656 -100.066406 47.609375 -101.953125 51.828125 -103.234375 C 56.046875 -104.523438 60.515625 -105.171875 65.234375 -105.171875 C 73.546875 -105.171875 80.484375 -103.847656 86.046875 -101.203125 C 91.617188 -98.566406 95.804688 -94.476562 98.609375 -88.9375 C 101.410156 -83.394531 102.8125 -76.21875 102.8125 -67.40625 L 102.8125 0 L 87.328125 0 L 87.328125 -66.375 C 87.328125 -75 85.359375 -81.445312 81.421875 -85.71875 C 77.492188 -90 71.472656 -92.140625 63.359375 -92.140625 C 55.671875 -92.140625 49.546875 -90.675781 44.984375 -87.75 C 40.421875 -84.832031 37.144531 -80.539062 35.15625 -74.875 C 33.175781 -69.207031 32.1875 -62.28125 32.1875 -54.09375 L 32.1875 0 L 16.515625 0 L 16.515625 -146.90625 Z M 32.1875 -146.90625 "/></g></g><g transform="translate(225.823432, 207.824336)"><g><path d="M 56.359375 -105.359375 C 65.171875 -105.359375 72.722656 -103.40625 79.015625 -99.5 C 85.316406 -95.601562 90.132812 -90.144531 93.46875 -83.125 C 96.800781 -76.113281 98.46875 -67.914062 98.46875 -58.53125 L 98.46875 -48.8125 L 27 -48.8125 C 27.1875 -36.664062 30.207031 -27.410156 36.0625 -21.046875 C 41.914062 -14.691406 50.160156 -11.515625 60.796875 -11.515625 C 67.347656 -11.515625 73.140625 -12.113281 78.171875 -13.3125 C 83.210938 -14.507812 88.4375 -16.269531 93.84375 -18.59375 L 93.84375 -4.8125 C 88.625 -2.488281 83.445312 -0.789062 78.3125 0.28125 C 73.1875 1.351562 67.128906 1.890625 60.140625 1.890625 C 50.191406 1.890625 41.519531 -0.140625 34.125 -4.203125 C 26.726562 -8.265625 20.984375 -14.226562 16.890625 -22.09375 C 12.804688 -29.957031 10.765625 -39.585938 10.765625 -50.984375 C 10.765625 -62.117188 12.632812 -71.757812 16.375 -79.90625 C 20.125 -88.0625 25.410156 -94.34375 32.234375 -98.75 C 39.066406 -103.15625 47.109375 -105.359375 56.359375 -105.359375 Z M 56.171875 -92.53125 C 47.804688 -92.53125 41.132812 -89.789062 36.15625 -84.3125 C 31.1875 -78.832031 28.226562 -71.1875 27.28125 -61.375 L 82.046875 -61.375 C 81.984375 -67.539062 81.019531 -72.96875 79.15625 -77.65625 C 77.300781 -82.34375 74.484375 -85.992188 70.703125 -88.609375 C 66.929688 -91.222656 62.085938 -92.53125 56.171875 -92.53125 Z M 56.171875 -92.53125 "/></g></g><g transform="translate(334.39822, 207.824336)"><g><path d="M 96.78125 -36.734375 C 96.78125 -28.546875 94.75 -21.570312 90.6875 -15.8125 C 86.625 -10.050781 80.941406 -5.660156 73.640625 -2.640625 C 66.335938 0.378906 57.75 1.890625 47.875 1.890625 C 42.644531 1.890625 37.703125 1.632812 33.046875 1.125 C 28.390625 0.625 24.109375 -0.09375 20.203125 -1.03125 C 16.296875 -1.976562 12.863281 -3.144531 9.90625 -4.53125 L 9.90625 -19.921875 C 14.632812 -17.972656 20.394531 -16.160156 27.1875 -14.484375 C 33.988281 -12.816406 41.101562 -11.984375 48.53125 -11.984375 C 55.457031 -11.984375 61.3125 -12.910156 66.09375 -14.765625 C 70.875 -16.628906 74.503906 -19.304688 76.984375 -22.796875 C 79.472656 -26.296875 80.71875 -30.5 80.71875 -35.40625 C 80.71875 -40.125 79.679688 -44.070312 77.609375 -47.25 C 75.535156 -50.425781 72.085938 -53.320312 67.265625 -55.9375 C 62.453125 -58.550781 55.890625 -61.335938 47.578125 -64.296875 C 41.722656 -66.367188 36.5625 -68.648438 32.09375 -71.140625 C 27.625 -73.628906 23.878906 -76.445312 20.859375 -79.59375 C 17.835938 -82.738281 15.554688 -86.390625 14.015625 -90.546875 C 12.472656 -94.703125 11.703125 -99.453125 11.703125 -104.796875 C 11.703125 -112.160156 13.570312 -118.46875 17.3125 -123.71875 C 21.0625 -128.976562 26.253906 -133.007812 32.890625 -135.8125 C 39.535156 -138.613281 47.171875 -140.015625 55.796875 -140.015625 C 63.160156 -140.015625 69.972656 -139.320312 76.234375 -137.9375 C 82.503906 -136.550781 88.25 -134.695312 93.46875 -132.375 L 88.46875 -118.578125 C 83.488281 -120.660156 78.210938 -122.394531 72.640625 -123.78125 C 67.078125 -125.164062 61.335938 -125.859375 55.421875 -125.859375 C 49.503906 -125.859375 44.515625 -124.988281 40.453125 -123.25 C 36.390625 -121.519531 33.289062 -119.082031 31.15625 -115.9375 C 29.019531 -112.789062 27.953125 -109.046875 27.953125 -104.703125 C 27.953125 -99.859375 28.972656 -95.832031 31.015625 -92.625 C 33.054688 -89.414062 36.328125 -86.566406 40.828125 -84.078125 C 45.328125 -81.585938 51.289062 -78.988281 58.71875 -76.28125 C 66.84375 -73.320312 73.738281 -70.191406 79.40625 -66.890625 C 85.070312 -63.585938 89.382812 -59.554688 92.34375 -54.796875 C 95.300781 -50.046875 96.78125 -44.023438 96.78125 -36.734375 Z M 96.78125 -36.734375 "/></g></g><g transform="translate(440.423859, 207.824336)"><g><path d="M 96.78125 -36.734375 C 96.78125 -28.546875 94.75 -21.570312 90.6875 -15.8125 C 86.625 -10.050781 80.941406 -5.660156 73.640625 -2.640625 C 66.335938 0.378906 57.75 1.890625 47.875 1.890625 C 42.644531 1.890625 37.703125 1.632812 33.046875 1.125 C 28.390625 0.625 24.109375 -0.09375 20.203125 -1.03125 C 16.296875 -1.976562 12.863281 -3.144531 9.90625 -4.53125 L 9.90625 -19.921875 C 14.632812 -17.972656 20.394531 -16.160156 27.1875 -14.484375 C 33.988281 -12.816406 41.101562 -11.984375 48.53125 -11.984375 C 55.457031 -11.984375 61.3125 -12.910156 66.09375 -14.765625 C 70.875 -16.628906 74.503906 -19.304688 76.984375 -22.796875 C 79.472656 -26.296875 80.71875 -30.5 80.71875 -35.40625 C 80.71875 -40.125 79.679688 -44.070312 77.609375 -47.25 C 75.535156 -50.425781 72.085938 -53.320312 67.265625 -55.9375 C 62.453125 -58.550781 55.890625 -61.335938 47.578125 -64.296875 C 41.722656 -66.367188 36.5625 -68.648438 32.09375 -71.140625 C 27.625 -73.628906 23.878906 -76.445312 20.859375 -79.59375 C 17.835938 -82.738281 15.554688 -86.390625 14.015625 -90.546875 C 12.472656 -94.703125 11.703125 -99.453125 11.703125 -104.796875 C 11.703125 -112.160156 13.570312 -118.46875 17.3125 -123.71875 C 21.0625 -128.976562 26.253906 -133.007812 32.890625 -135.8125 C 39.535156 -138.613281 47.171875 -140.015625 55.796875 -140.015625 C 63.160156 -140.015625 69.972656 -139.320312 76.234375 -137.9375 C 82.503906 -136.550781 88.25 -134.695312 93.46875 -132.375 L 88.46875 -118.578125 C 83.488281 -120.660156 78.210938 -122.394531 72.640625 -123.78125 C 67.078125 -125.164062 61.335938 -125.859375 55.421875 -125.859375 C 49.503906 -125.859375 44.515625 -124.988281 40.453125 -123.25 C 36.390625 -121.519531 33.289062 -119.082031 31.15625 -115.9375 C 29.019531 -112.789062 27.953125 -109.046875 27.953125 -104.703125 C 27.953125 -99.859375 28.972656 -95.832031 31.015625 -92.625 C 33.054688 -89.414062 36.328125 -86.566406 40.828125 -84.078125 C 45.328125 -81.585938 51.289062 -78.988281 58.71875 -76.28125 C 66.84375 -73.320312 73.738281 -70.191406 79.40625 -66.890625 C 85.070312 -63.585938 89.382812 -59.554688 92.34375 -54.796875 C 95.300781 -50.046875 96.78125 -44.023438 96.78125 -36.734375 Z M 96.78125 -36.734375 "/></g></g></g><g fill="#7b7272" fill-opacity="1"><g transform="translate(546.449492, 207.824336)"><g><path d="M 79.59375 0 L 33.234375 -122.171875 L 32.484375 -122.171875 C 32.734375 -119.585938 32.953125 -116.4375 33.140625 -112.71875 C 33.328125 -109.007812 33.484375 -104.96875 33.609375 -100.59375 C 33.734375 -96.21875 33.796875 -91.765625 33.796875 -87.234375 L 33.796875 0 L 18.875 0 L 18.875 -138.03125 L 42.671875 -138.03125 L 86.390625 -23.21875 L 87.046875 -23.21875 L 131.421875 -138.03125 L 155.03125 -138.03125 L 155.03125 0 L 139.171875 0 L 139.171875 -88.375 C 139.171875 -92.46875 139.234375 -96.570312 139.359375 -100.6875 C 139.484375 -104.8125 139.640625 -108.710938 139.828125 -112.390625 C 140.015625 -116.078125 140.203125 -119.273438 140.390625 -121.984375 L 139.640625 -121.984375 L 92.71875 0 Z M 79.59375 0 "/></g></g><g transform="translate(720.357977, 207.824336)"><g><path d="M 18.875 0 L 18.875 -138.03125 L 34.9375 -138.03125 L 34.9375 -14.34375 L 96.203125 -14.34375 L 96.203125 0 Z M 18.875 0 "/></g></g></g></g></g></g><g transform="matrix(1, 0, 0, 1, 398, 220)"><g clip-path="url(#e556392193)"><g fill="#7b7272" fill-opacity="1"><g transform="translate(0.654477, 37.757387)"><g><path d="M 11.609375 0.375 C 9.785156 0.375 8.164062 0.148438 6.75 -0.296875 C 5.34375 -0.742188 4.164062 -1.332031 3.21875 -2.0625 C 2.28125 -2.789062 1.5625 -3.585938 1.0625 -4.453125 L 3.90625 -7.9375 L 4.34375 -7.9375 C 5.132812 -6.757812 6.132812 -5.820312 7.34375 -5.125 C 8.5625 -4.4375 9.984375 -4.09375 11.609375 -4.09375 C 12.992188 -4.09375 14.035156 -4.382812 14.734375 -4.96875 C 15.441406 -5.5625 15.796875 -6.367188 15.796875 -7.390625 C 15.796875 -8.015625 15.679688 -8.535156 15.453125 -8.953125 C 15.222656 -9.367188 14.84375 -9.722656 14.3125 -10.015625 C 13.789062 -10.316406 13.082031 -10.578125 12.1875 -10.796875 L 8.828125 -11.5625 C 6.472656 -12.101562 4.71875 -12.992188 3.5625 -14.234375 C 2.414062 -15.484375 1.84375 -17.109375 1.84375 -19.109375 C 1.84375 -20.585938 2.210938 -21.882812 2.953125 -23 C 3.691406 -24.125 4.769531 -25 6.1875 -25.625 C 7.601562 -26.25 9.296875 -26.5625 11.265625 -26.5625 C 13.285156 -26.5625 15.015625 -26.296875 16.453125 -25.765625 C 17.890625 -25.234375 19.101562 -24.414062 20.09375 -23.3125 L 17.53125 -19.796875 L 17.078125 -19.796875 C 16.335938 -20.578125 15.488281 -21.160156 14.53125 -21.546875 C 13.582031 -21.929688 12.492188 -22.125 11.265625 -22.125 C 9.835938 -22.125 8.753906 -21.875 8.015625 -21.375 C 7.273438 -20.875 6.90625 -20.179688 6.90625 -19.296875 C 6.90625 -18.472656 7.164062 -17.816406 7.6875 -17.328125 C 8.207031 -16.835938 9.109375 -16.457031 10.390625 -16.1875 L 13.828125 -15.46875 C 16.367188 -14.9375 18.210938 -14.023438 19.359375 -12.734375 C 20.503906 -11.453125 21.078125 -9.78125 21.078125 -7.71875 C 21.078125 -6.082031 20.722656 -4.65625 20.015625 -3.4375 C 19.316406 -2.226562 18.253906 -1.289062 16.828125 -0.625 C 15.410156 0.0390625 13.671875 0.375 11.609375 0.375 Z M 11.609375 0.375 "/></g></g></g><g fill="#7b7272" fill-opacity="1"><g transform="translate(26.442952, 37.757387)"><g><path d="M 14.3125 0.375 C 11.894531 0.375 9.765625 -0.125 7.921875 -1.125 C 6.085938 -2.125 4.648438 -3.628906 3.609375 -5.640625 C 2.578125 -7.660156 2.0625 -10.144531 2.0625 -13.09375 C 2.0625 -16.039062 2.578125 -18.519531 3.609375 -20.53125 C 4.648438 -22.539062 6.085938 -24.046875 7.921875 -25.046875 C 9.765625 -26.054688 11.894531 -26.5625 14.3125 -26.5625 C 16.820312 -26.5625 18.957031 -26.066406 20.71875 -25.078125 C 22.488281 -24.085938 23.75 -22.585938 24.5 -20.578125 L 20.71875 -18.265625 L 20.265625 -18.28125 C 19.703125 -19.644531 18.941406 -20.617188 17.984375 -21.203125 C 17.023438 -21.796875 15.800781 -22.09375 14.3125 -22.09375 C 12.132812 -22.09375 10.4375 -21.375 9.21875 -19.9375 C 8 -18.5 7.390625 -16.21875 7.390625 -13.09375 C 7.390625 -9.976562 8 -7.695312 9.21875 -6.25 C 10.4375 -4.8125 12.132812 -4.09375 14.3125 -4.09375 C 17.707031 -4.09375 19.789062 -5.75 20.5625 -9.0625 L 21 -9.0625 L 24.8125 -7.078125 C 24.101562 -4.585938 22.878906 -2.722656 21.140625 -1.484375 C 19.410156 -0.242188 17.132812 0.375 14.3125 0.375 Z M 14.3125 0.375 "/></g></g></g><g fill="#7b7272" fill-opacity="1"><g transform="translate(55.418415, 37.757387)"><g><path d="M 20.3125 -16.328125 L 20.3125 -26.171875 L 25.46875 -26.171875 L 25.46875 0 L 20.3125 0 L 20.3125 -11.921875 L 8.578125 -11.921875 L 8.578125 0 L 3.40625 0 L 3.40625 -26.171875 L 8.578125 -26.171875 L 8.578125 -16.328125 Z M 20.3125 -16.328125 "/></g></g></g><g fill="#7b7272" fill-opacity="1"><g transform="translate(87.598785, 37.757387)"><g><path d="M 14.265625 0.375 C 11.867188 0.375 9.753906 -0.113281 7.921875 -1.09375 C 6.085938 -2.070312 4.648438 -3.566406 3.609375 -5.578125 C 2.578125 -7.585938 2.0625 -10.09375 2.0625 -13.09375 C 2.0625 -16.082031 2.578125 -18.582031 3.609375 -20.59375 C 4.648438 -22.613281 6.085938 -24.113281 7.921875 -25.09375 C 9.753906 -26.070312 11.867188 -26.5625 14.265625 -26.5625 C 16.671875 -26.5625 18.785156 -26.070312 20.609375 -25.09375 C 22.429688 -24.125 23.859375 -22.628906 24.890625 -20.609375 C 25.929688 -18.585938 26.453125 -16.082031 26.453125 -13.09375 C 26.453125 -10.09375 25.929688 -7.582031 24.890625 -5.5625 C 23.859375 -3.550781 22.429688 -2.054688 20.609375 -1.078125 C 18.785156 -0.109375 16.671875 0.375 14.265625 0.375 Z M 14.265625 -4.125 C 16.492188 -4.125 18.191406 -4.832031 19.359375 -6.25 C 20.523438 -7.675781 21.109375 -9.957031 21.109375 -13.09375 C 21.109375 -16.21875 20.523438 -18.492188 19.359375 -19.921875 C 18.191406 -21.359375 16.492188 -22.078125 14.265625 -22.078125 C 12.035156 -22.078125 10.332031 -21.359375 9.15625 -19.921875 C 7.976562 -18.492188 7.390625 -16.21875 7.390625 -13.09375 C 7.390625 -9.957031 7.976562 -7.675781 9.15625 -6.25 C 10.332031 -4.832031 12.035156 -4.125 14.265625 -4.125 Z M 14.265625 -4.125 "/></g></g></g><g fill="#7b7272" fill-opacity="1"><g transform="translate(119.421065, 37.757387)"><g><path d="M 14.265625 0.375 C 11.867188 0.375 9.753906 -0.113281 7.921875 -1.09375 C 6.085938 -2.070312 4.648438 -3.566406 3.609375 -5.578125 C 2.578125 -7.585938 2.0625 -10.09375 2.0625 -13.09375 C 2.0625 -16.082031 2.578125 -18.582031 3.609375 -20.59375 C 4.648438 -22.613281 6.085938 -24.113281 7.921875 -25.09375 C 9.753906 -26.070312 11.867188 -26.5625 14.265625 -26.5625 C 16.671875 -26.5625 18.785156 -26.070312 20.609375 -25.09375 C 22.429688 -24.125 23.859375 -22.628906 24.890625 -20.609375 C 25.929688 -18.585938 26.453125 -16.082031 26.453125 -13.09375 C 26.453125 -10.09375 25.929688 -7.582031 24.890625 -5.5625 C 23.859375 -3.550781 22.429688 -2.054688 20.609375 -1.078125 C 18.785156 -0.109375 16.671875 0.375 14.265625 0.375 Z M 14.265625 -4.125 C 16.492188 -4.125 18.191406 -4.832031 19.359375 -6.25 C 20.523438 -7.675781 21.109375 -9.957031 21.109375 -13.09375 C 21.109375 -16.21875 20.523438 -18.492188 19.359375 -19.921875 C 18.191406 -21.359375 16.492188 -22.078125 14.265625 -22.078125 C 12.035156 -22.078125 10.332031 -21.359375 9.15625 -19.921875 C 7.976562 -18.492188 7.390625 -16.21875 7.390625 -13.09375 C 7.390625 -9.957031 7.976562 -7.675781 9.15625 -6.25 C 10.332031 -4.832031 12.035156 -4.125 14.265625 -4.125 Z M 14.265625 -4.125 "/></g></g></g><g fill="#7b7272" fill-opacity="1"><g transform="translate(151.243346, 37.757387)"><g><path d="M 8.578125 -26.171875 L 8.578125 -4.328125 L 20.34375 -4.328125 L 20.34375 0 L 3.40625 0 L 3.40625 -26.171875 Z M 8.578125 -26.171875 "/></g></g></g><g fill="#7b7272" fill-opacity="1"><g transform="translate(175.742699, 37.757387)"><g/></g></g><g fill="#7b7272" fill-opacity="1"><g transform="translate(187.691052, 37.757387)"><g><path d="M 14.265625 0.375 C 11.867188 0.375 9.753906 -0.113281 7.921875 -1.09375 C 6.085938 -2.070312 4.648438 -3.566406 3.609375 -5.578125 C 2.578125 -7.585938 2.0625 -10.09375 2.0625 -13.09375 C 2.0625 -16.082031 2.578125 -18.582031 3.609375 -20.59375 C 4.648438 -22.613281 6.085938 -24.113281 7.921875 -25.09375 C 9.753906 -26.070312 11.867188 -26.5625 14.265625 -26.5625 C 16.671875 -26.5625 18.785156 -26.070312 20.609375 -25.09375 C 22.429688 -24.125 23.859375 -22.628906 24.890625 -20.609375 C 25.929688 -18.585938 26.453125 -16.082031 26.453125 -13.09375 C 26.453125 -10.09375 25.929688 -7.582031 24.890625 -5.5625 C 23.859375 -3.550781 22.429688 -2.054688 20.609375 -1.078125 C 18.785156 -0.109375 16.671875 0.375 14.265625 0.375 Z M 14.265625 -4.125 C 16.492188 -4.125 18.191406 -4.832031 19.359375 -6.25 C 20.523438 -7.675781 21.109375 -9.957031 21.109375 -13.09375 C 21.109375 -16.21875 20.523438 -18.492188 19.359375 -19.921875 C 18.191406 -21.359375 16.492188 -22.078125 14.265625 -22.078125 C 12.035156 -22.078125 10.332031 -21.359375 9.15625 -19.921875 C 7.976562 -18.492188 7.390625 -16.21875 7.390625 -13.09375 C 7.390625 -9.957031 7.976562 -7.675781 9.15625 -6.25 C 10.332031 -4.832031 12.035156 -4.125 14.265625 -4.125 Z M 14.265625 -4.125 "/></g></g></g><g fill="#7b7272" fill-opacity="1"><g transform="translate(219.513332, 37.757387)"><g><path d="M 20 -26.171875 L 20 -21.84375 L 8.578125 -21.84375 L 8.578125 -14.921875 L 18.9375 -14.921875 L 18.9375 -10.640625 L 8.578125 -10.640625 L 8.578125 0 L 3.40625 0 L 3.40625 -26.171875 Z M 20 -26.171875 "/></g></g></g><g fill="#7b7272" fill-opacity="1"><g transform="translate(243.976878, 37.757387)"><g/></g></g><g fill="#7b7272" fill-opacity="1"><g transform="translate(255.92523, 37.757387)"><g><path d="M 8.140625 0 L 3.40625 0 L 3.40625 -26.171875 L 10.171875 -26.171875 L 16.796875 -6.9375 L 17.171875 -6.9375 L 23.765625 -26.171875 L 30.375 -26.171875 L 30.375 0 L 25.46875 0 L 25.46875 -17.296875 L 25.015625 -17.375 L 18.96875 0 L 14.640625 0 L 8.59375 -17.375 L 8.140625 -17.296875 Z M 8.140625 0 "/></g></g></g><g fill="#7b7272" fill-opacity="1"><g transform="translate(293.011415, 37.757387)"><g><path d="M 25.125 0 L 19.671875 0 L 17.703125 -6.03125 L 7.6875 -6.03125 L 5.71875 0 L 0.390625 0 L 9.4375 -26.171875 L 16.078125 -26.171875 Z M 12.4375 -20.71875 L 9.078125 -10.390625 L 16.28125 -10.390625 L 12.890625 -20.71875 Z M 12.4375 -20.71875 "/></g></g></g><g fill="#7b7272" fill-opacity="1"><g transform="translate(321.825749, 37.757387)"><g><path d="M 14.3125 0.375 C 11.894531 0.375 9.765625 -0.125 7.921875 -1.125 C 6.085938 -2.125 4.648438 -3.628906 3.609375 -5.640625 C 2.578125 -7.660156 2.0625 -10.144531 2.0625 -13.09375 C 2.0625 -16.039062 2.578125 -18.519531 3.609375 -20.53125 C 4.648438 -22.539062 6.085938 -24.046875 7.921875 -25.046875 C 9.765625 -26.054688 11.894531 -26.5625 14.3125 -26.5625 C 16.820312 -26.5625 18.957031 -26.066406 20.71875 -25.078125 C 22.488281 -24.085938 23.75 -22.585938 24.5 -20.578125 L 20.71875 -18.265625 L 20.265625 -18.28125 C 19.703125 -19.644531 18.941406 -20.617188 17.984375 -21.203125 C 17.023438 -21.796875 15.800781 -22.09375 14.3125 -22.09375 C 12.132812 -22.09375 10.4375 -21.375 9.21875 -19.9375 C 8 -18.5 7.390625 -16.21875 7.390625 -13.09375 C 7.390625 -9.976562 8 -7.695312 9.21875 -6.25 C 10.4375 -4.8125 12.132812 -4.09375 14.3125 -4.09375 C 17.707031 -4.09375 19.789062 -5.75 20.5625 -9.0625 L 21 -9.0625 L 24.8125 -7.078125 C 24.101562 -4.585938 22.878906 -2.722656 21.140625 -1.484375 C 19.410156 -0.242188 17.132812 0.375 14.3125 0.375 Z M 14.3125 0.375 "/></g></g></g><g fill="#7b7272" fill-opacity="1"><g transform="translate(350.801193, 37.757387)"><g><path d="M 20.3125 -16.328125 L 20.3125 -26.171875 L 25.46875 -26.171875 L 25.46875 0 L 20.3125 0 L 20.3125 -11.921875 L 8.578125 -11.921875 L 8.578125 0 L 3.40625 0 L 3.40625 -26.171875 L 8.578125 -26.171875 L 8.578125 -16.328125 Z M 20.3125 -16.328125 "/></g></g></g><g fill="#7b7272" fill-opacity="1"><g transform="translate(382.981602, 37.757387)"><g><path d="M 8.578125 0 L 3.40625 0 L 3.40625 -26.171875 L 8.578125 -26.171875 Z M 8.578125 0 "/></g></g></g><g fill="#7b7272" fill-opacity="1"><g transform="translate(398.278074, 37.757387)"><g><path d="M 8.421875 0 L 3.40625 0 L 3.40625 -26.171875 L 9.328125 -26.171875 L 19.84375 -9.3125 L 20.3125 -9.390625 L 20.3125 -26.171875 L 25.28125 -26.171875 L 25.28125 0 L 19.984375 0 L 8.859375 -18.015625 L 8.421875 -17.9375 Z M 8.421875 0 "/></g></g></g><g fill="#7b7272" fill-opacity="1"><g transform="translate(430.279379, 37.757387)"><g><path d="M 8.578125 -11.5 L 8.578125 -4.328125 L 21.078125 -4.328125 L 21.078125 0 L 3.40625 0 L 3.40625 -26.171875 L 20.796875 -26.171875 L 20.796875 -21.84375 L 8.578125 -21.84375 L 8.578125 -15.71875 L 19.25 -15.71875 L 19.25 -11.5 Z M 8.578125 -11.5 "/></g></g></g><g fill="#7b7272" fill-opacity="1"><g transform="translate(456.085767, 37.757387)"><g/></g></g><g fill="#7b7272" fill-opacity="1"><g transform="translate(468.034099, 37.757387)"><g><path d="M 8.578125 -26.171875 L 8.578125 -4.328125 L 20.34375 -4.328125 L 20.34375 0 L 3.40625 0 L 3.40625 -26.171875 Z M 8.578125 -26.171875 "/></g></g></g><g fill="#7b7272" fill-opacity="1"><g transform="translate(492.533474, 37.757387)"><g><path d="M 8.578125 -11.5 L 8.578125 -4.328125 L 21.078125 -4.328125 L 21.078125 0 L 3.40625 0 L 3.40625 -26.171875 L 20.796875 -26.171875 L 20.796875 -21.84375 L 8.578125 -21.84375 L 8.578125 -15.71875 L 19.25 -15.71875 L 19.25 -11.5 Z M 8.578125 -11.5 "/></g></g></g><g fill="#7b7272" fill-opacity="1"><g transform="translate(518.339862, 37.757387)"><g><path d="M 25.125 0 L 19.671875 0 L 17.703125 -6.03125 L 7.6875 -6.03125 L 5.71875 0 L 0.390625 0 L 9.4375 -26.171875 L 16.078125 -26.171875 Z M 12.4375 -20.71875 L 9.078125 -10.390625 L 16.28125 -10.390625 L 12.890625 -20.71875 Z M 12.4375 -20.71875 "/></g></g></g><g fill="#7b7272" fill-opacity="1"><g transform="translate(547.154196, 37.757387)"><g><path d="M 3.40625 0 L 3.40625 -26.171875 L 13.90625 -26.171875 C 16.625 -26.171875 18.671875 -25.546875 20.046875 -24.296875 C 21.421875 -23.054688 22.109375 -21.335938 22.109375 -19.140625 C 22.109375 -17.554688 21.707031 -16.253906 20.90625 -15.234375 C 20.101562 -14.222656 18.898438 -13.445312 17.296875 -12.90625 L 17.296875 -12.53125 C 18.117188 -12.175781 18.785156 -11.644531 19.296875 -10.9375 C 19.804688 -10.238281 20.285156 -9.195312 20.734375 -7.8125 L 23.34375 0 L 18.03125 0 L 15.46875 -7.828125 C 15.207031 -8.609375 14.910156 -9.21875 14.578125 -9.65625 C 14.253906 -10.09375 13.835938 -10.410156 13.328125 -10.609375 C 12.816406 -10.804688 12.160156 -10.90625 11.359375 -10.90625 L 8.578125 -10.90625 L 8.578125 0 Z M 13.28125 -15 C 15.789062 -15 17.046875 -16.171875 17.046875 -18.515625 C 17.046875 -20.890625 15.789062 -22.078125 13.28125 -22.078125 L 8.578125 -22.078125 L 8.578125 -15 Z M 13.28125 -15 "/></g></g></g><g fill="#7b7272" fill-opacity="1"><g transform="translate(574.930052, 37.757387)"><g><path d="M 8.421875 0 L 3.40625 0 L 3.40625 -26.171875 L 9.328125 -26.171875 L 19.84375 -9.3125 L 20.3125 -9.390625 L 20.3125 -26.171875 L 25.28125 -26.171875 L 25.28125 0 L 19.984375 0 L 8.859375 -18.015625 L 8.421875 -17.9375 Z M 8.421875 0 "/></g></g></g><g fill="#7b7272" fill-opacity="1"><g transform="translate(606.931397, 37.757387)"><g><path d="M 8.578125 0 L 3.40625 0 L 3.40625 -26.171875 L 8.578125 -26.171875 Z M 8.578125 0 "/></g></g></g><g fill="#7b7272" fill-opacity="1"><g transform="translate(622.22787, 37.757387)"><g><path d="M 8.421875 0 L 3.40625 0 L 3.40625 -26.171875 L 9.328125 -26.171875 L 19.84375 -9.3125 L 20.3125 -9.390625 L 20.3125 -26.171875 L 25.28125 -26.171875 L 25.28125 0 L 19.984375 0 L 8.859375 -18.015625 L 8.421875 -17.9375 Z M 8.421875 0 "/></g></g></g><g fill="#7b7272" fill-opacity="1"><g transform="translate(654.229214, 37.757387)"><g><path d="M 12.71875 0.375 C 10.53125 0.375 8.640625 -0.117188 7.046875 -1.109375 C 5.453125 -2.109375 4.222656 -3.613281 3.359375 -5.625 C 2.492188 -7.644531 2.0625 -10.132812 2.0625 -13.09375 C 2.0625 -16.070312 2.578125 -18.566406 3.609375 -20.578125 C 4.648438 -22.585938 6.09375 -24.085938 7.9375 -25.078125 C 9.78125 -26.066406 11.921875 -26.5625 14.359375 -26.5625 C 16.867188 -26.5625 19.003906 -26.09375 20.765625 -25.15625 C 22.535156 -24.226562 23.78125 -22.84375 24.5 -21 L 20.71875 -18.71875 L 20.265625 -18.734375 C 19.734375 -19.898438 18.976562 -20.75 18 -21.28125 C 17.03125 -21.820312 15.816406 -22.09375 14.359375 -22.09375 C 12.097656 -22.09375 10.367188 -21.378906 9.171875 -19.953125 C 7.984375 -18.523438 7.390625 -16.238281 7.390625 -13.09375 C 7.390625 -9.925781 7.945312 -7.625 9.0625 -6.1875 C 10.1875 -4.757812 11.835938 -4.046875 14.015625 -4.046875 C 15.898438 -4.046875 17.289062 -4.46875 18.1875 -5.3125 C 19.082031 -6.164062 19.53125 -7.429688 19.53125 -9.109375 L 19.53125 -10.25 L 13.34375 -10.25 L 13.34375 -14.453125 L 24.671875 -14.453125 L 24.671875 0 L 19.734375 0 L 19.734375 -3.515625 L 19.359375 -3.5625 C 18.816406 -2.3125 18 -1.34375 16.90625 -0.65625 C 15.820312 0.03125 14.425781 0.375 12.71875 0.375 Z M 12.71875 0.375 "/></g></g></g></g></g></g></g></svg>