<svg xmlns="http://www.w3.org/2000/svg" xmlns:xlink="http://www.w3.org/1999/xlink" width="2000" zoomAndPan="magnify" viewBox="0 0 1500 1499.999933" height="2000" preserveAspectRatio="xMidYMid meet" version="1.0"><defs><g/><clipPath id="61df3bcab3"><path d="M 86 591.492188 L 464.25 591.492188 L 464.25 969.492188 L 86 969.492188 Z M 86 591.492188 " clip-rule="nonzero"/></clipPath><clipPath id="65e23746b5"><path d="M 255 271 L 293 271 L 293 378.359375 L 255 378.359375 Z M 255 271 " clip-rule="nonzero"/></clipPath><clipPath id="9eb46d4019"><path d="M 152 0.492188 L 378.25 0.492188 L 378.25 378.359375 L 152 378.359375 Z M 152 0.492188 " clip-rule="nonzero"/></clipPath><clipPath id="b96af9f587"><path d="M 0.398438 0.492188 L 269 0.492188 L 269 378.359375 L 0.398438 378.359375 Z M 0.398438 0.492188 " clip-rule="nonzero"/></clipPath><clipPath id="7515e834ab"><path d="M 0.398438 264 L 110 264 L 110 378.359375 L 0.398438 378.359375 Z M 0.398438 264 " clip-rule="nonzero"/></clipPath><clipPath id="76ccd1390e"><rect x="0" width="379" y="0" height="379"/></clipPath></defs><g clip-path="url(#61df3bcab3)"><g transform="matrix(1, 0, 0, 1, 86, 591)"><g clip-path="url(#76ccd1390e)"><g clip-path="url(#65e23746b5)"><path fill="#7b7272" d="M 255.921875 271.480469 C 270.472656 304.746094 280.632812 320.222656 280.863281 378.117188 L 292.492188 378.117188 C 297.074219 317.234375 256.523438 272.144531 255.921875 271.480469 Z M 255.921875 271.480469 " fill-opacity="1" fill-rule="nonzero"/></g><path fill="#7b7272" d="M 306.953125 102.808594 L 300.769531 95.253906 L 252.714844 95.253906 L 302.492188 114.820312 Z M 306.953125 102.808594 " fill-opacity="1" fill-rule="nonzero"/><g clip-path="url(#9eb46d4019)"><path fill="#7b7272" d="M 322.054688 378.117188 L 378.226562 378.117188 L 378.226562 0.492188 L 152.371094 0.492188 C 155.945312 1.015625 157.96875 1.425781 157.96875 1.425781 L 197.332031 49.941406 C 267.820312 70.082031 318.625 100.289062 318.625 100.289062 L 295.28125 162.996094 L 278.34375 165.742188 C 278.34375 165.742188 274.683594 176.269531 293.449219 190.914062 C 312.214844 205.5625 308.324219 222.957031 308.324219 222.957031 C 277.71875 239.277344 220.167969 227.304688 219.085938 227.078125 C 317.933594 257.980469 322.054688 378.117188 322.054688 378.117188 Z M 322.054688 378.117188 " fill-opacity="1" fill-rule="nonzero"/></g><path fill="#7b7272" d="M 138.058594 33.808594 L 139.089844 47.882812 L 95.492188 50.972656 L 189.894531 75.003906 L 153.507812 61.273438 L 153.164062 48.914062 Z M 138.058594 33.808594 " fill-opacity="1" fill-rule="nonzero"/><g clip-path="url(#b96af9f587)"><path fill="#7b7272" d="M 156.796875 178.148438 C 96.722656 239.9375 0.601562 183.292969 0.601562 183.292969 L 0.601562 237.417969 C 14.71875 254.460938 36.96875 274.066406 71.402344 289.714844 C 108.90625 306.757812 133.214844 346.484375 147.34375 378.113281 L 188.386719 378.113281 C 152.867188 304.058594 74.695312 269.429688 73.984375 269.121094 C 151.871094 289.621094 197.941406 353.085938 213.488281 378.113281 L 256.835938 378.113281 C 253.285156 282.894531 202.410156 236.46875 161.898438 214.496094 C 215.503906 226.214844 267.363281 217 267.363281 217 C 237.445312 218.710938 225.386719 211.144531 221.035156 202.589844 C 216.3125 193.3125 220.363281 181.984375 229.703125 177.398438 C 249.652344 167.601562 268.28125 166.195312 268.28125 166.195312 C 245.640625 166.074219 226.816406 172.902344 214.296875 179.207031 C 207.824219 182.464844 200.160156 182.628906 193.671875 179.398438 C 168.089844 166.660156 195.503906 119.96875 195.503906 119.96875 C 168.5 120.886719 140.121094 137.824219 140.121094 137.824219 C 68.035156 172.835938 -10.917969 136.445312 17.226562 57.496094 C 30.652344 19.839844 63.285156 5.347656 93.75 0.492188 L 0.601562 0.492188 L 0.601562 153.683594 C 83.917969 217.347656 156.175781 178.484375 156.796875 178.148438 Z M 156.796875 178.148438 " fill-opacity="1" fill-rule="nonzero"/></g><g clip-path="url(#7515e834ab)"><path fill="#7b7272" d="M 46.085938 302.589844 C 77.734375 320.519531 97.511719 351.914062 109.246094 378.117188 L 0.601562 378.117188 L 0.601562 264.890625 C 10.597656 277.773438 25.070312 290.683594 46.085938 302.589844 Z M 46.085938 302.589844 " fill-opacity="1" fill-rule="nonzero"/></g></g></g></g><g fill="#7b7272" fill-opacity="1"><g transform="translate(473.948229, 825.473405)"><g><path d="M 79.453125 0 L 46.515625 0 L 46.515625 -127.890625 L 4.359375 -127.890625 L 4.359375 -155.28125 L 121.625 -155.28125 L 121.625 -127.890625 L 79.453125 -127.890625 Z M 79.453125 0 "/></g></g><g transform="translate(599.920185, 825.473405)"><g><path d="M 49.390625 -165.265625 L 49.390625 -131.609375 C 49.390625 -125.722656 49.191406 -120.125 48.796875 -114.8125 C 48.410156 -109.507812 48.113281 -105.757812 47.90625 -103.5625 L 49.609375 -103.5625 C 52.148438 -107.664062 55.171875 -110.992188 58.671875 -113.546875 C 62.179688 -116.097656 66.0625 -117.972656 70.3125 -119.171875 C 74.5625 -120.378906 79.128906 -120.984375 84.015625 -120.984375 C 92.585938 -120.984375 100.054688 -119.476562 106.421875 -116.46875 C 112.796875 -113.457031 117.753906 -108.75 121.296875 -102.34375 C 124.835938 -95.9375 126.609375 -87.632812 126.609375 -77.4375 L 126.609375 0 L 94.21875 0 L 94.21875 -69.359375 C 94.21875 -77.859375 92.65625 -84.265625 89.53125 -88.578125 C 86.414062 -92.898438 81.601562 -95.0625 75.09375 -95.0625 C 68.582031 -95.0625 63.445312 -93.554688 59.6875 -90.546875 C 55.9375 -87.535156 53.28125 -83.109375 51.71875 -77.265625 C 50.164062 -71.429688 49.390625 -64.300781 49.390625 -55.875 L 49.390625 0 L 17 0 L 17 -165.265625 Z M 49.390625 -165.265625 "/></g></g><g transform="translate(742.886671, 825.473405)"><g><path d="M 65.953125 -120.984375 C 76.929688 -120.984375 86.382812 -118.875 94.3125 -114.65625 C 102.25 -110.445312 108.375 -104.335938 112.6875 -96.328125 C 117.007812 -88.328125 119.171875 -78.554688 119.171875 -67.015625 L 119.171875 -51.296875 L 42.59375 -51.296875 C 42.945312 -42.160156 45.691406 -34.988281 50.828125 -29.78125 C 55.960938 -24.582031 63.097656 -21.984375 72.234375 -21.984375 C 79.804688 -21.984375 86.742188 -22.757812 93.046875 -24.3125 C 99.347656 -25.875 105.828125 -28.210938 112.484375 -31.328125 L 112.484375 -6.265625 C 106.609375 -3.359375 100.460938 -1.234375 94.046875 0.109375 C 87.640625 1.453125 79.867188 2.125 70.734375 2.125 C 58.835938 2.125 48.304688 -0.0664062 39.140625 -4.453125 C 29.972656 -8.847656 22.785156 -15.539062 17.578125 -24.53125 C 12.367188 -33.53125 9.765625 -44.863281 9.765625 -58.53125 C 9.765625 -72.40625 12.117188 -83.960938 16.828125 -93.203125 C 21.546875 -102.441406 28.113281 -109.378906 36.53125 -114.015625 C 44.957031 -118.660156 54.765625 -120.984375 65.953125 -120.984375 Z M 66.171875 -97.9375 C 59.867188 -97.9375 54.644531 -95.914062 50.5 -91.875 C 46.363281 -87.84375 43.976562 -81.503906 43.34375 -72.859375 L 88.796875 -72.859375 C 88.722656 -77.679688 87.851562 -81.96875 86.1875 -85.71875 C 84.53125 -89.46875 82.054688 -92.441406 78.765625 -94.640625 C 75.472656 -96.835938 71.273438 -97.9375 66.171875 -97.9375 Z M 66.171875 -97.9375 "/></g></g></g><g fill="#7b7272" fill-opacity="1"><g transform="translate(871.407822, 825.473405)"><g><path d="M 111.203125 -43.125 C 111.203125 -33.914062 108.972656 -25.910156 104.515625 -19.109375 C 100.054688 -12.316406 93.5625 -7.078125 85.03125 -3.390625 C 76.5 0.285156 66.140625 2.125 53.953125 2.125 C 48.578125 2.125 43.320312 1.769531 38.1875 1.0625 C 33.050781 0.351562 28.128906 -0.6875 23.421875 -2.0625 C 18.710938 -3.445312 14.234375 -5.164062 9.984375 -7.21875 L 9.984375 -37.8125 C 17.347656 -34.550781 24.992188 -31.609375 32.921875 -28.984375 C 40.859375 -26.367188 48.71875 -25.0625 56.5 -25.0625 C 61.882812 -25.0625 66.222656 -25.769531 69.515625 -27.1875 C 72.804688 -28.601562 75.195312 -30.550781 76.6875 -33.03125 C 78.175781 -35.507812 78.921875 -38.34375 78.921875 -41.53125 C 78.921875 -45.425781 77.609375 -48.753906 74.984375 -51.515625 C 72.367188 -54.273438 68.773438 -56.859375 64.203125 -59.265625 C 59.640625 -61.671875 54.488281 -64.253906 48.75 -67.015625 C 45.144531 -68.722656 41.21875 -70.796875 36.96875 -73.234375 C 32.71875 -75.679688 28.679688 -78.671875 24.859375 -82.203125 C 21.035156 -85.742188 17.898438 -90.046875 15.453125 -95.109375 C 13.015625 -100.179688 11.796875 -106.253906 11.796875 -113.328125 C 11.796875 -122.609375 13.914062 -130.539062 18.15625 -137.125 C 22.40625 -143.707031 28.476562 -148.75 36.375 -152.25 C 44.269531 -155.757812 53.597656 -157.515625 64.359375 -157.515625 C 72.429688 -157.515625 80.132812 -156.578125 87.46875 -154.703125 C 94.800781 -152.828125 102.46875 -150.117188 110.46875 -146.578125 L 99.84375 -120.984375 C 92.6875 -123.878906 86.273438 -126.125 80.609375 -127.71875 C 74.953125 -129.3125 69.1875 -130.109375 63.3125 -130.109375 C 59.195312 -130.109375 55.6875 -129.453125 52.78125 -128.140625 C 49.882812 -126.835938 47.691406 -125 46.203125 -122.625 C 44.710938 -120.25 43.96875 -117.503906 43.96875 -114.390625 C 43.96875 -110.710938 45.046875 -107.613281 47.203125 -105.09375 C 49.367188 -102.582031 52.628906 -100.15625 56.984375 -97.8125 C 61.335938 -95.476562 66.773438 -92.753906 73.296875 -89.640625 C 81.222656 -85.890625 88 -81.976562 93.625 -77.90625 C 99.257812 -73.832031 103.597656 -69.050781 106.640625 -63.5625 C 109.679688 -58.082031 111.203125 -51.269531 111.203125 -43.125 Z M 111.203125 -43.125 "/></g></g></g><g fill="#7b7272" fill-opacity="1"><g transform="translate(991.219213, 825.473405)"><g><path d="M 111.203125 -43.125 C 111.203125 -33.914062 108.972656 -25.910156 104.515625 -19.109375 C 100.054688 -12.316406 93.5625 -7.078125 85.03125 -3.390625 C 76.5 0.285156 66.140625 2.125 53.953125 2.125 C 48.578125 2.125 43.320312 1.769531 38.1875 1.0625 C 33.050781 0.351562 28.128906 -0.6875 23.421875 -2.0625 C 18.710938 -3.445312 14.234375 -5.164062 9.984375 -7.21875 L 9.984375 -37.8125 C 17.347656 -34.550781 24.992188 -31.609375 32.921875 -28.984375 C 40.859375 -26.367188 48.71875 -25.0625 56.5 -25.0625 C 61.882812 -25.0625 66.222656 -25.769531 69.515625 -27.1875 C 72.804688 -28.601562 75.195312 -30.550781 76.6875 -33.03125 C 78.175781 -35.507812 78.921875 -38.34375 78.921875 -41.53125 C 78.921875 -45.425781 77.609375 -48.753906 74.984375 -51.515625 C 72.367188 -54.273438 68.773438 -56.859375 64.203125 -59.265625 C 59.640625 -61.671875 54.488281 -64.253906 48.75 -67.015625 C 45.144531 -68.722656 41.21875 -70.796875 36.96875 -73.234375 C 32.71875 -75.679688 28.679688 -78.671875 24.859375 -82.203125 C 21.035156 -85.742188 17.898438 -90.046875 15.453125 -95.109375 C 13.015625 -100.179688 11.796875 -106.253906 11.796875 -113.328125 C 11.796875 -122.609375 13.914062 -130.539062 18.15625 -137.125 C 22.40625 -143.707031 28.476562 -148.75 36.375 -152.25 C 44.269531 -155.757812 53.597656 -157.515625 64.359375 -157.515625 C 72.429688 -157.515625 80.132812 -156.578125 87.46875 -154.703125 C 94.800781 -152.828125 102.46875 -150.117188 110.46875 -146.578125 L 99.84375 -120.984375 C 92.6875 -123.878906 86.273438 -126.125 80.609375 -127.71875 C 74.953125 -129.3125 69.1875 -130.109375 63.3125 -130.109375 C 59.195312 -130.109375 55.6875 -129.453125 52.78125 -128.140625 C 49.882812 -126.835938 47.691406 -125 46.203125 -122.625 C 44.710938 -120.25 43.96875 -117.503906 43.96875 -114.390625 C 43.96875 -110.710938 45.046875 -107.613281 47.203125 -105.09375 C 49.367188 -102.582031 52.628906 -100.15625 56.984375 -97.8125 C 61.335938 -95.476562 66.773438 -92.753906 73.296875 -89.640625 C 81.222656 -85.890625 88 -81.976562 93.625 -77.90625 C 99.257812 -73.832031 103.597656 -69.050781 106.640625 -63.5625 C 109.679688 -58.082031 111.203125 -51.269531 111.203125 -43.125 Z M 111.203125 -43.125 "/></g></g></g><g fill="#7b7272" fill-opacity="1"><g transform="translate(1111.030696, 825.473405)"><g><path d="M 85.296875 0 L 47.90625 -121.828125 L 46.953125 -121.828125 C 47.085938 -118.921875 47.3125 -114.546875 47.625 -108.703125 C 47.945312 -102.867188 48.25 -96.65625 48.53125 -90.0625 C 48.820312 -83.476562 48.96875 -77.535156 48.96875 -72.234375 L 48.96875 0 L 19.546875 0 L 19.546875 -155.28125 L 64.359375 -155.28125 L 101.125 -36.53125 L 101.75 -36.53125 L 140.734375 -155.28125 L 185.5625 -155.28125 L 185.5625 0 L 154.859375 0 L 154.859375 -73.5 C 154.859375 -78.382812 154.945312 -84.015625 155.125 -90.390625 C 155.300781 -96.765625 155.53125 -102.835938 155.8125 -108.609375 C 156.101562 -114.378906 156.316406 -118.71875 156.453125 -121.625 L 155.5 -121.625 L 115.453125 0 Z M 85.296875 0 "/></g></g><g transform="translate(1316.133433, 825.473405)"><g><path d="M 19.546875 0 L 19.546875 -155.28125 L 52.46875 -155.28125 L 52.46875 -27.1875 L 115.453125 -27.1875 L 115.453125 0 Z M 19.546875 0 "/></g></g></g><g fill="#7b7272" fill-opacity="1"><g transform="translate(525.26418, 887.345112)"><g><path d="M 13.046875 0.421875 C 11.003906 0.421875 9.1875 0.167969 7.59375 -0.328125 C 6.007812 -0.835938 4.6875 -1.5 3.625 -2.3125 C 2.5625 -3.132812 1.75 -4.035156 1.1875 -5.015625 L 4.390625 -8.921875 L 4.890625 -8.921875 C 5.773438 -7.609375 6.898438 -6.5625 8.265625 -5.78125 C 9.628906 -5 11.222656 -4.609375 13.046875 -4.609375 C 14.609375 -4.609375 15.785156 -4.9375 16.578125 -5.59375 C 17.367188 -6.257812 17.765625 -7.164062 17.765625 -8.3125 C 17.765625 -9.007812 17.632812 -9.59375 17.375 -10.0625 C 17.125 -10.539062 16.703125 -10.945312 16.109375 -11.28125 C 15.523438 -11.613281 14.726562 -11.898438 13.71875 -12.140625 L 9.9375 -13.015625 C 7.289062 -13.617188 5.316406 -14.617188 4.015625 -16.015625 C 2.722656 -17.421875 2.078125 -19.242188 2.078125 -21.484375 C 2.078125 -23.148438 2.492188 -24.613281 3.328125 -25.875 C 4.160156 -27.144531 5.367188 -28.128906 6.953125 -28.828125 C 8.546875 -29.523438 10.453125 -29.875 12.671875 -29.875 C 14.941406 -29.875 16.882812 -29.570312 18.5 -28.96875 C 20.113281 -28.375 21.476562 -27.457031 22.59375 -26.21875 L 19.71875 -22.28125 L 19.21875 -22.28125 C 18.382812 -23.144531 17.429688 -23.796875 16.359375 -24.234375 C 15.285156 -24.671875 14.054688 -24.890625 12.671875 -24.890625 C 11.066406 -24.890625 9.847656 -24.609375 9.015625 -24.046875 C 8.191406 -23.484375 7.78125 -22.707031 7.78125 -21.71875 C 7.78125 -20.789062 8.070312 -20.050781 8.65625 -19.5 C 9.238281 -18.945312 10.25 -18.515625 11.6875 -18.203125 L 15.546875 -17.40625 C 18.410156 -16.800781 20.484375 -15.773438 21.765625 -14.328125 C 23.054688 -12.890625 23.703125 -11.007812 23.703125 -8.6875 C 23.703125 -6.84375 23.304688 -5.238281 22.515625 -3.875 C 21.722656 -2.507812 20.523438 -1.453125 18.921875 -0.703125 C 17.328125 0.0429688 15.367188 0.421875 13.046875 0.421875 Z M 13.046875 0.421875 "/></g></g></g><g fill="#7b7272" fill-opacity="1"><g transform="translate(554.275087, 887.345112)"><g><path d="M 16.09375 0.421875 C 13.382812 0.421875 10.992188 -0.140625 8.921875 -1.265625 C 6.859375 -2.390625 5.238281 -4.082031 4.0625 -6.34375 C 2.894531 -8.613281 2.3125 -11.40625 2.3125 -14.71875 C 2.3125 -18.039062 2.894531 -20.832031 4.0625 -23.09375 C 5.238281 -25.351562 6.859375 -27.046875 8.921875 -28.171875 C 10.992188 -29.304688 13.382812 -29.875 16.09375 -29.875 C 18.925781 -29.875 21.332031 -29.316406 23.3125 -28.203125 C 25.289062 -27.097656 26.703125 -25.410156 27.546875 -23.140625 L 23.296875 -20.546875 L 22.796875 -20.5625 C 22.171875 -22.09375 21.316406 -23.191406 20.234375 -23.859375 C 19.148438 -24.523438 17.769531 -24.859375 16.09375 -24.859375 C 13.644531 -24.859375 11.734375 -24.046875 10.359375 -22.421875 C 8.992188 -20.804688 8.3125 -18.238281 8.3125 -14.71875 C 8.3125 -11.21875 8.992188 -8.65625 10.359375 -7.03125 C 11.734375 -5.414062 13.644531 -4.609375 16.09375 -4.609375 C 19.914062 -4.609375 22.257812 -6.46875 23.125 -10.1875 L 23.625 -10.1875 L 27.921875 -7.953125 C 27.109375 -5.160156 25.726562 -3.066406 23.78125 -1.671875 C 21.832031 -0.273438 19.269531 0.421875 16.09375 0.421875 Z M 16.09375 0.421875 "/></g></g></g><g fill="#7b7272" fill-opacity="1"><g transform="translate(586.8712, 887.345112)"><g><path d="M 22.84375 -18.375 L 22.84375 -29.453125 L 28.640625 -29.453125 L 28.640625 0 L 22.84375 0 L 22.84375 -13.421875 L 9.640625 -13.421875 L 9.640625 0 L 3.828125 0 L 3.828125 -29.453125 L 9.640625 -29.453125 L 9.640625 -18.375 Z M 22.84375 -18.375 "/></g></g></g><g fill="#7b7272" fill-opacity="1"><g transform="translate(623.072659, 887.345112)"><g><path d="M 16.046875 0.421875 C 13.347656 0.421875 10.96875 -0.125 8.90625 -1.21875 C 6.851562 -2.320312 5.238281 -4.003906 4.0625 -6.265625 C 2.894531 -8.535156 2.3125 -11.351562 2.3125 -14.71875 C 2.3125 -18.09375 2.894531 -20.910156 4.0625 -23.171875 C 5.238281 -25.429688 6.851562 -27.113281 8.90625 -28.21875 C 10.96875 -29.320312 13.347656 -29.875 16.046875 -29.875 C 18.742188 -29.875 21.117188 -29.328125 23.171875 -28.234375 C 25.234375 -27.140625 26.84375 -25.457031 28 -23.1875 C 29.164062 -20.914062 29.75 -18.09375 29.75 -14.71875 C 29.75 -11.351562 29.164062 -8.535156 28 -6.265625 C 26.84375 -3.992188 25.234375 -2.3125 23.171875 -1.21875 C 21.117188 -0.125 18.742188 0.421875 16.046875 0.421875 Z M 16.046875 -4.625 C 18.546875 -4.625 20.453125 -5.425781 21.765625 -7.03125 C 23.085938 -8.644531 23.75 -11.207031 23.75 -14.71875 C 23.75 -18.238281 23.085938 -20.800781 21.765625 -22.40625 C 20.453125 -24.019531 18.546875 -24.828125 16.046875 -24.828125 C 13.535156 -24.828125 11.617188 -24.019531 10.296875 -22.40625 C 8.972656 -20.800781 8.3125 -18.238281 8.3125 -14.71875 C 8.3125 -11.207031 8.972656 -8.644531 10.296875 -7.03125 C 11.617188 -5.425781 13.535156 -4.625 16.046875 -4.625 Z M 16.046875 -4.625 "/></g></g></g><g fill="#7b7272" fill-opacity="1"><g transform="translate(658.871285, 887.345112)"><g><path d="M 16.046875 0.421875 C 13.347656 0.421875 10.96875 -0.125 8.90625 -1.21875 C 6.851562 -2.320312 5.238281 -4.003906 4.0625 -6.265625 C 2.894531 -8.535156 2.3125 -11.351562 2.3125 -14.71875 C 2.3125 -18.09375 2.894531 -20.910156 4.0625 -23.171875 C 5.238281 -25.429688 6.851562 -27.113281 8.90625 -28.21875 C 10.96875 -29.320312 13.347656 -29.875 16.046875 -29.875 C 18.742188 -29.875 21.117188 -29.328125 23.171875 -28.234375 C 25.234375 -27.140625 26.84375 -25.457031 28 -23.1875 C 29.164062 -20.914062 29.75 -18.09375 29.75 -14.71875 C 29.75 -11.351562 29.164062 -8.535156 28 -6.265625 C 26.84375 -3.992188 25.234375 -2.3125 23.171875 -1.21875 C 21.117188 -0.125 18.742188 0.421875 16.046875 0.421875 Z M 16.046875 -4.625 C 18.546875 -4.625 20.453125 -5.425781 21.765625 -7.03125 C 23.085938 -8.644531 23.75 -11.207031 23.75 -14.71875 C 23.75 -18.238281 23.085938 -20.800781 21.765625 -22.40625 C 20.453125 -24.019531 18.546875 -24.828125 16.046875 -24.828125 C 13.535156 -24.828125 11.617188 -24.019531 10.296875 -22.40625 C 8.972656 -20.800781 8.3125 -18.238281 8.3125 -14.71875 C 8.3125 -11.207031 8.972656 -8.644531 10.296875 -7.03125 C 11.617188 -5.425781 13.535156 -4.625 16.046875 -4.625 Z M 16.046875 -4.625 "/></g></g></g><g fill="#7b7272" fill-opacity="1"><g transform="translate(694.669912, 887.345112)"><g><path d="M 9.640625 -29.453125 L 9.640625 -4.875 L 22.875 -4.875 L 22.875 0 L 3.828125 0 L 3.828125 -29.453125 Z M 9.640625 -29.453125 "/></g></g></g><g fill="#7b7272" fill-opacity="1"><g transform="translate(722.230624, 887.345112)"><g/></g></g><g fill="#7b7272" fill-opacity="1"><g transform="translate(735.672075, 887.345112)"><g><path d="M 16.046875 0.421875 C 13.347656 0.421875 10.96875 -0.125 8.90625 -1.21875 C 6.851562 -2.320312 5.238281 -4.003906 4.0625 -6.265625 C 2.894531 -8.535156 2.3125 -11.351562 2.3125 -14.71875 C 2.3125 -18.09375 2.894531 -20.910156 4.0625 -23.171875 C 5.238281 -25.429688 6.851562 -27.113281 8.90625 -28.21875 C 10.96875 -29.320312 13.347656 -29.875 16.046875 -29.875 C 18.742188 -29.875 21.117188 -29.328125 23.171875 -28.234375 C 25.234375 -27.140625 26.84375 -25.457031 28 -23.1875 C 29.164062 -20.914062 29.75 -18.09375 29.75 -14.71875 C 29.75 -11.351562 29.164062 -8.535156 28 -6.265625 C 26.84375 -3.992188 25.234375 -2.3125 23.171875 -1.21875 C 21.117188 -0.125 18.742188 0.421875 16.046875 0.421875 Z M 16.046875 -4.625 C 18.546875 -4.625 20.453125 -5.425781 21.765625 -7.03125 C 23.085938 -8.644531 23.75 -11.207031 23.75 -14.71875 C 23.75 -18.238281 23.085938 -20.800781 21.765625 -22.40625 C 20.453125 -24.019531 18.546875 -24.828125 16.046875 -24.828125 C 13.535156 -24.828125 11.617188 -24.019531 10.296875 -22.40625 C 8.972656 -20.800781 8.3125 -18.238281 8.3125 -14.71875 C 8.3125 -11.207031 8.972656 -8.644531 10.296875 -7.03125 C 11.617188 -5.425781 13.535156 -4.625 16.046875 -4.625 Z M 16.046875 -4.625 "/></g></g></g><g fill="#7b7272" fill-opacity="1"><g transform="translate(771.470701, 887.345112)"><g><path d="M 22.5 -29.453125 L 22.5 -24.578125 L 9.640625 -24.578125 L 9.640625 -16.78125 L 21.3125 -16.78125 L 21.3125 -11.96875 L 9.640625 -11.96875 L 9.640625 0 L 3.828125 0 L 3.828125 -29.453125 Z M 22.5 -29.453125 "/></g></g></g><g fill="#7b7272" fill-opacity="1"><g transform="translate(798.991131, 887.345112)"><g/></g></g><g fill="#7b7272" fill-opacity="1"><g transform="translate(812.432582, 887.345112)"><g><path d="M 9.171875 0 L 3.828125 0 L 3.828125 -29.453125 L 11.4375 -29.453125 L 18.890625 -7.796875 L 19.3125 -7.796875 L 26.734375 -29.453125 L 34.15625 -29.453125 L 34.15625 0 L 28.640625 0 L 28.640625 -19.453125 L 28.140625 -19.53125 L 21.328125 0 L 16.46875 0 L 9.671875 -19.53125 L 9.171875 -19.453125 Z M 9.171875 0 "/></g></g></g><g fill="#7b7272" fill-opacity="1"><g transform="translate(854.152839, 887.345112)"><g><path d="M 28.265625 0 L 22.140625 0 L 19.921875 -6.78125 L 8.640625 -6.78125 L 6.421875 0 L 0.4375 0 L 10.609375 -29.453125 L 18.09375 -29.453125 Z M 14 -23.296875 L 10.21875 -11.6875 L 18.3125 -11.6875 L 14.5 -23.296875 Z M 14 -23.296875 "/></g></g></g><g fill="#7b7272" fill-opacity="1"><g transform="translate(886.567677, 887.345112)"><g><path d="M 16.09375 0.421875 C 13.382812 0.421875 10.992188 -0.140625 8.921875 -1.265625 C 6.859375 -2.390625 5.238281 -4.082031 4.0625 -6.34375 C 2.894531 -8.613281 2.3125 -11.40625 2.3125 -14.71875 C 2.3125 -18.039062 2.894531 -20.832031 4.0625 -23.09375 C 5.238281 -25.351562 6.859375 -27.046875 8.921875 -28.171875 C 10.992188 -29.304688 13.382812 -29.875 16.09375 -29.875 C 18.925781 -29.875 21.332031 -29.316406 23.3125 -28.203125 C 25.289062 -27.097656 26.703125 -25.410156 27.546875 -23.140625 L 23.296875 -20.546875 L 22.796875 -20.5625 C 22.171875 -22.09375 21.316406 -23.191406 20.234375 -23.859375 C 19.148438 -24.523438 17.769531 -24.859375 16.09375 -24.859375 C 13.644531 -24.859375 11.734375 -24.046875 10.359375 -22.421875 C 8.992188 -20.804688 8.3125 -18.238281 8.3125 -14.71875 C 8.3125 -11.21875 8.992188 -8.65625 10.359375 -7.03125 C 11.734375 -5.414062 13.644531 -4.609375 16.09375 -4.609375 C 19.914062 -4.609375 22.257812 -6.46875 23.125 -10.1875 L 23.625 -10.1875 L 27.921875 -7.953125 C 27.109375 -5.160156 25.726562 -3.066406 23.78125 -1.671875 C 21.832031 -0.273438 19.269531 0.421875 16.09375 0.421875 Z M 16.09375 0.421875 "/></g></g></g><g fill="#7b7272" fill-opacity="1"><g transform="translate(919.163789, 887.345112)"><g><path d="M 22.84375 -18.375 L 22.84375 -29.453125 L 28.640625 -29.453125 L 28.640625 0 L 22.84375 0 L 22.84375 -13.421875 L 9.640625 -13.421875 L 9.640625 0 L 3.828125 0 L 3.828125 -29.453125 L 9.640625 -29.453125 L 9.640625 -18.375 Z M 22.84375 -18.375 "/></g></g></g><g fill="#7b7272" fill-opacity="1"><g transform="translate(955.365248, 887.345112)"><g><path d="M 9.640625 0 L 3.828125 0 L 3.828125 -29.453125 L 9.640625 -29.453125 Z M 9.640625 0 "/></g></g></g><g fill="#7b7272" fill-opacity="1"><g transform="translate(972.573178, 887.345112)"><g><path d="M 9.46875 0 L 3.828125 0 L 3.828125 -29.453125 L 10.5 -29.453125 L 22.3125 -10.46875 L 22.84375 -10.546875 L 22.84375 -29.453125 L 28.4375 -29.453125 L 28.4375 0 L 22.484375 0 L 9.96875 -20.265625 L 9.46875 -20.1875 Z M 9.46875 0 "/></g></g></g><g fill="#7b7272" fill-opacity="1"><g transform="translate(1008.573221, 887.345112)"><g><path d="M 9.640625 -12.9375 L 9.640625 -4.875 L 23.703125 -4.875 L 23.703125 0 L 3.828125 0 L 3.828125 -29.453125 L 23.390625 -29.453125 L 23.390625 -24.578125 L 9.640625 -24.578125 L 9.640625 -17.6875 L 21.65625 -17.6875 L 21.65625 -12.9375 Z M 9.640625 -12.9375 "/></g></g></g><g fill="#7b7272" fill-opacity="1"><g transform="translate(1037.60427, 887.345112)"><g/></g></g><g fill="#7b7272" fill-opacity="1"><g transform="translate(1051.045721, 887.345112)"><g><path d="M 9.640625 -29.453125 L 9.640625 -4.875 L 22.875 -4.875 L 22.875 0 L 3.828125 0 L 3.828125 -29.453125 Z M 9.640625 -29.453125 "/></g></g></g><g fill="#7b7272" fill-opacity="1"><g transform="translate(1078.606434, 887.345112)"><g><path d="M 9.640625 -12.9375 L 9.640625 -4.875 L 23.703125 -4.875 L 23.703125 0 L 3.828125 0 L 3.828125 -29.453125 L 23.390625 -29.453125 L 23.390625 -24.578125 L 9.640625 -24.578125 L 9.640625 -17.6875 L 21.65625 -17.6875 L 21.65625 -12.9375 Z M 9.640625 -12.9375 "/></g></g></g><g fill="#7b7272" fill-opacity="1"><g transform="translate(1107.637483, 887.345112)"><g><path d="M 28.265625 0 L 22.140625 0 L 19.921875 -6.78125 L 8.640625 -6.78125 L 6.421875 0 L 0.4375 0 L 10.609375 -29.453125 L 18.09375 -29.453125 Z M 14 -23.296875 L 10.21875 -11.6875 L 18.3125 -11.6875 L 14.5 -23.296875 Z M 14 -23.296875 "/></g></g></g><g fill="#7b7272" fill-opacity="1"><g transform="translate(1140.052321, 887.345112)"><g><path d="M 3.828125 0 L 3.828125 -29.453125 L 15.65625 -29.453125 C 18.695312 -29.453125 20.992188 -28.75 22.546875 -27.34375 C 24.097656 -25.9375 24.875 -24 24.875 -21.53125 C 24.875 -19.75 24.421875 -18.285156 23.515625 -17.140625 C 22.609375 -15.992188 21.253906 -15.117188 19.453125 -14.515625 L 19.453125 -14.09375 C 20.378906 -13.695312 21.128906 -13.101562 21.703125 -12.3125 C 22.273438 -11.519531 22.816406 -10.34375 23.328125 -8.78125 L 26.265625 0 L 20.28125 0 L 17.40625 -8.796875 C 17.101562 -9.679688 16.765625 -10.367188 16.390625 -10.859375 C 16.023438 -11.359375 15.554688 -11.71875 14.984375 -11.9375 C 14.421875 -12.15625 13.679688 -12.265625 12.765625 -12.265625 L 9.640625 -12.265625 L 9.640625 0 Z M 14.9375 -16.875 C 17.757812 -16.875 19.171875 -18.191406 19.171875 -20.828125 C 19.171875 -23.492188 17.757812 -24.828125 14.9375 -24.828125 L 9.640625 -24.828125 L 9.640625 -16.875 Z M 14.9375 -16.875 "/></g></g></g><g fill="#7b7272" fill-opacity="1"><g transform="translate(1171.298946, 887.345112)"><g><path d="M 9.46875 0 L 3.828125 0 L 3.828125 -29.453125 L 10.5 -29.453125 L 22.3125 -10.46875 L 22.84375 -10.546875 L 22.84375 -29.453125 L 28.4375 -29.453125 L 28.4375 0 L 22.484375 0 L 9.96875 -20.265625 L 9.46875 -20.1875 Z M 9.46875 0 "/></g></g></g><g fill="#7b7272" fill-opacity="1"><g transform="translate(1207.298989, 887.345112)"><g><path d="M 9.640625 0 L 3.828125 0 L 3.828125 -29.453125 L 9.640625 -29.453125 Z M 9.640625 0 "/></g></g></g><g fill="#7b7272" fill-opacity="1"><g transform="translate(1224.506919, 887.345112)"><g><path d="M 9.46875 0 L 3.828125 0 L 3.828125 -29.453125 L 10.5 -29.453125 L 22.3125 -10.46875 L 22.84375 -10.546875 L 22.84375 -29.453125 L 28.4375 -29.453125 L 28.4375 0 L 22.484375 0 L 9.96875 -20.265625 L 9.46875 -20.1875 Z M 9.46875 0 "/></g></g></g><g fill="#7b7272" fill-opacity="1"><g transform="translate(1260.506962, 887.345112)"><g><path d="M 14.296875 0.421875 C 11.835938 0.421875 9.710938 -0.132812 7.921875 -1.25 C 6.128906 -2.375 4.742188 -4.066406 3.765625 -6.328125 C 2.796875 -8.597656 2.3125 -11.394531 2.3125 -14.71875 C 2.3125 -18.082031 2.894531 -20.894531 4.0625 -23.15625 C 5.238281 -25.414062 6.863281 -27.097656 8.9375 -28.203125 C 11.007812 -29.316406 13.414062 -29.875 16.15625 -29.875 C 18.976562 -29.875 21.378906 -29.347656 23.359375 -28.296875 C 25.347656 -27.253906 26.742188 -25.695312 27.546875 -23.625 L 23.296875 -21.046875 L 22.796875 -21.0625 C 22.191406 -22.382812 21.34375 -23.347656 20.25 -23.953125 C 19.15625 -24.554688 17.789062 -24.859375 16.15625 -24.859375 C 13.613281 -24.859375 11.671875 -24.054688 10.328125 -22.453125 C 8.984375 -20.847656 8.3125 -18.269531 8.3125 -14.71875 C 8.3125 -11.164062 8.9375 -8.582031 10.1875 -6.96875 C 11.445312 -5.351562 13.304688 -4.546875 15.765625 -4.546875 C 17.890625 -4.546875 19.453125 -5.019531 20.453125 -5.96875 C 21.460938 -6.925781 21.96875 -8.351562 21.96875 -10.25 L 21.96875 -11.515625 L 15 -11.515625 L 15 -16.25 L 27.75 -16.25 L 27.75 0 L 22.203125 0 L 22.203125 -3.953125 L 21.765625 -4.015625 C 21.160156 -2.597656 20.242188 -1.503906 19.015625 -0.734375 C 17.796875 0.0351562 16.222656 0.421875 14.296875 0.421875 Z M 14.296875 0.421875 "/></g></g></g></svg>