<svg xmlns="http://www.w3.org/2000/svg" xmlns:xlink="http://www.w3.org/1999/xlink" width="2000" zoomAndPan="magnify" viewBox="0 0 1500 1499.999933" height="2000" preserveAspectRatio="xMidYMid meet" version="1.0"><defs><g/><clipPath id="b68bf1d03a"><path d="M 0.160156 18 L 79 18 L 79 138 L 0.160156 138 Z M 0.160156 18 " clip-rule="nonzero"/></clipPath><clipPath id="86509ca7c5"><rect x="0" width="1137" y="0" height="185"/></clipPath></defs><g transform="matrix(1, 0, 0, 1, 182, 673)"><g clip-path="url(#86509ca7c5)"><g clip-path="url(#b68bf1d03a)"><g fill="#ffffff" fill-opacity="1"><g transform="translate(0.405608, 137.79868)"><g><path d="M 0.171875 -2.359375 C 6.015625 -7.984375 12.113281 -14.171875 18.46875 -20.921875 C 24.820312 -27.671875 30.78125 -34.753906 36.34375 -42.171875 C 41.914062 -49.597656 46.445312 -57.109375 49.9375 -64.703125 C 53.425781 -72.296875 55.171875 -79.691406 55.171875 -86.890625 C 55.171875 -90.597656 54.523438 -94.082031 53.234375 -97.34375 C 51.941406 -100.613281 49.832031 -103.285156 46.90625 -105.359375 C 43.976562 -107.441406 40.039062 -108.484375 35.09375 -108.484375 C 30.925781 -108.484375 26.929688 -107.609375 23.109375 -105.859375 C 19.285156 -104.117188 15.578125 -101.28125 11.984375 -97.34375 L 10.453125 -98.875 C 15.742188 -105.507812 21.285156 -110.566406 27.078125 -114.046875 C 32.867188 -117.535156 39.535156 -119.28125 47.078125 -119.28125 C 52.140625 -119.28125 56.722656 -118.210938 60.828125 -116.078125 C 64.929688 -113.941406 68.25 -110.789062 70.78125 -106.625 C 73.3125 -102.46875 74.578125 -97.351562 74.578125 -91.28125 C 74.578125 -85.3125 73.28125 -79.398438 70.6875 -73.546875 C 68.101562 -67.703125 64.644531 -61.96875 60.3125 -56.34375 C 55.988281 -50.726562 51.238281 -45.390625 46.0625 -40.328125 C 40.882812 -35.265625 35.679688 -30.484375 30.453125 -25.984375 C 25.222656 -21.484375 20.472656 -17.378906 16.203125 -13.671875 L 53.3125 -13.671875 C 58.9375 -13.671875 63.210938 -13.921875 66.140625 -14.421875 C 69.066406 -14.929688 71.257812 -15.859375 72.71875 -17.203125 C 74.175781 -18.554688 75.410156 -20.472656 76.421875 -22.953125 L 78.28125 -22.78125 L 75.75 0 L 0.171875 0 Z M 0.171875 -2.359375 "/></g></g></g></g><g fill="#ffffff" fill-opacity="1"><g transform="translate(85.948086, 137.79868)"><g><path d="M -3.546875 0 L -3.546875 -2.359375 C -0.953125 -3.265625 1.492188 -5.007812 3.796875 -7.59375 C 6.097656 -10.175781 8.375 -14.28125 10.625 -19.90625 L 42.1875 -98.1875 C 43.414062 -101.34375 43.300781 -104.382812 41.84375 -107.3125 L 39.65625 -112.03125 L 56.1875 -119.453125 L 98.03125 -19.734375 C 100.382812 -14.222656 102.660156 -10.175781 104.859375 -7.59375 C 107.054688 -5.007812 109.109375 -3.265625 111.015625 -2.359375 L 111.015625 0 L 80.3125 0 L 80.3125 -2.359375 C 83.125 -3.265625 84.160156 -5.007812 83.421875 -7.59375 C 82.691406 -10.175781 81.148438 -14.222656 78.796875 -19.734375 L 68.671875 -44.03125 L 23.625 -44.03125 L 13.828125 -19.90625 C 11.578125 -14.28125 10.675781 -10.117188 11.125 -7.421875 C 11.582031 -4.722656 13.21875 -3.035156 16.03125 -2.359375 L 16.03125 0 Z M 24.640625 -46.734375 L 67.484375 -46.734375 L 45.71875 -98.875 Z M 24.640625 -46.734375 "/></g></g></g><g fill="#ffffff" fill-opacity="1"><g transform="translate(194.43687, 137.79868)"><g><path d="M 4.71875 0 L 4.71875 -2.359375 C 7.53125 -3.265625 9.359375 -5.148438 10.203125 -8.015625 C 11.046875 -10.878906 11.46875 -15.347656 11.46875 -21.421875 L 11.46875 -60.234375 C 11.46875 -65.179688 10.878906 -68.441406 9.703125 -70.015625 C 8.523438 -71.585938 6.863281 -72.828125 4.71875 -73.734375 L 4.71875 -76.09375 L 27 -85.875 L 28.6875 -84.53125 L 28.6875 -70.359375 C 33.289062 -74.179688 38.570312 -77.664062 44.53125 -80.8125 C 50.5 -83.96875 56.742188 -85.546875 63.265625 -85.546875 C 69.234375 -85.546875 74.128906 -84.332031 77.953125 -81.90625 C 81.773438 -79.488281 84.472656 -75.582031 86.046875 -70.1875 C 90.660156 -74.007812 95.972656 -77.523438 101.984375 -80.734375 C 108.003906 -83.941406 114.332031 -85.546875 120.96875 -85.546875 C 128.726562 -85.546875 134.71875 -83.378906 138.9375 -79.046875 C 143.15625 -74.710938 145.265625 -67.597656 145.265625 -57.703125 L 145.265625 -21.421875 C 145.265625 -15.347656 145.6875 -10.878906 146.53125 -8.015625 C 147.375 -5.148438 149.203125 -3.265625 152.015625 -2.359375 L 152.015625 0 L 121.3125 0 L 121.3125 -2.359375 C 124.125 -3.265625 125.953125 -5.148438 126.796875 -8.015625 C 127.640625 -10.878906 128.0625 -15.347656 128.0625 -21.421875 L 128.0625 -54.671875 C 128.0625 -62.316406 126.738281 -68.25 124.09375 -72.46875 C 121.445312 -76.6875 116.972656 -78.796875 110.671875 -78.796875 C 106.742188 -78.796875 102.863281 -77.863281 99.03125 -76 C 95.207031 -74.144531 91.046875 -71.421875 86.546875 -67.828125 C 87.222656 -64.785156 87.5625 -61.410156 87.5625 -57.703125 L 87.5625 -21.421875 C 87.5625 -15.347656 87.984375 -10.878906 88.828125 -8.015625 C 89.671875 -5.148438 91.5 -3.265625 94.3125 -2.359375 L 94.3125 0 L 63.609375 0 L 63.609375 -2.359375 C 66.421875 -3.265625 68.25 -5.148438 69.09375 -8.015625 C 69.9375 -10.878906 70.359375 -15.347656 70.359375 -21.421875 L 70.359375 -54.671875 C 70.359375 -62.316406 69.035156 -68.25 66.390625 -72.46875 C 63.742188 -76.6875 59.273438 -78.796875 52.984375 -78.796875 C 49.046875 -78.796875 45.160156 -77.835938 41.328125 -75.921875 C 37.503906 -74.015625 33.289062 -71.203125 28.6875 -67.484375 L 28.6875 -21.421875 C 28.6875 -15.347656 29.109375 -10.878906 29.953125 -8.015625 C 30.796875 -5.148438 32.625 -3.265625 35.4375 -2.359375 L 35.4375 0 Z M 4.71875 0 "/></g></g></g><g fill="#ffffff" fill-opacity="1"><g transform="translate(348.986968, 137.79868)"><g><path d="M 61.578125 -98.1875 C 59.328125 -103.8125 57.101562 -107.914062 54.90625 -110.5 C 52.71875 -113.09375 50.671875 -114.835938 48.765625 -115.734375 L 48.765625 -118.109375 L 79.296875 -118.109375 L 79.296875 -115.734375 C 76.484375 -114.835938 75.441406 -113.09375 76.171875 -110.5 C 76.898438 -107.914062 78.390625 -103.8125 80.640625 -98.1875 L 88.921875 -78.109375 L 96.34375 -98.03125 C 98.476562 -103.65625 99.265625 -107.84375 98.703125 -110.59375 C 98.140625 -113.351562 96.394531 -115.066406 93.46875 -115.734375 L 93.46875 -118.109375 L 113.046875 -118.109375 L 113.046875 -115.734375 C 110.566406 -114.835938 108.226562 -113.066406 106.03125 -110.421875 C 103.84375 -107.785156 101.625 -103.65625 99.375 -98.03125 L 90.4375 -74.0625 L 112.03125 -21.59375 L 139.875 -98.03125 C 142.007812 -103.65625 142.796875 -107.84375 142.234375 -110.59375 C 141.671875 -113.351562 139.925781 -115.066406 137 -115.734375 L 137 -118.109375 L 156.578125 -118.109375 L 156.578125 -115.734375 C 154.097656 -114.835938 151.757812 -113.066406 149.5625 -110.421875 C 147.375 -107.785156 145.269531 -103.65625 143.25 -98.03125 L 107.640625 0 L 101.5625 0 L 79.296875 -54.5 L 57.203125 0 L 50.78125 0 L 13.328125 -98.03125 C 11.191406 -103.757812 9.082031 -107.914062 7 -110.5 C 4.914062 -113.09375 2.921875 -114.835938 1.015625 -115.734375 L 1.015625 -118.109375 L 31.546875 -118.109375 L 31.546875 -115.734375 C 28.734375 -114.835938 27.664062 -113.09375 28.34375 -110.5 C 29.019531 -107.914062 30.425781 -103.757812 32.5625 -98.03125 L 62.09375 -21.265625 L 77.609375 -58.890625 Z M 61.578125 -98.1875 "/></g></g></g><g fill="#ffffff" fill-opacity="1"><g transform="translate(491.220099, 137.79868)"><g><path d="M 50.28125 1.6875 C 44.769531 1.6875 39.34375 0.871094 34 -0.75 C 28.65625 -2.382812 23.816406 -4.914062 19.484375 -8.34375 C 15.148438 -11.78125 11.691406 -16.113281 9.109375 -21.34375 C 6.523438 -26.570312 5.234375 -32.785156 5.234375 -39.984375 C 5.234375 -46.847656 6.46875 -53.0625 8.9375 -58.625 C 11.414062 -64.195312 14.789062 -68.976562 19.0625 -72.96875 C 23.332031 -76.957031 28.164062 -80.050781 33.5625 -82.25 C 38.96875 -84.445312 44.539062 -85.546875 50.28125 -85.546875 C 55.5625 -85.546875 60.816406 -84.753906 66.046875 -83.171875 C 71.285156 -81.597656 76.125 -79.097656 80.5625 -75.671875 C 85.007812 -72.242188 88.550781 -67.882812 91.1875 -62.59375 C 93.832031 -57.3125 95.15625 -50.957031 95.15625 -43.53125 C 95.15625 -36.332031 93.773438 -29.921875 91.015625 -24.296875 C 88.265625 -18.671875 84.664062 -13.945312 80.21875 -10.125 C 75.78125 -6.300781 70.914062 -3.375 65.625 -1.34375 C 60.34375 0.675781 55.226562 1.6875 50.28125 1.6875 Z M 22.109375 -52.640625 C 22.109375 -47.691406 22.835938 -42.289062 24.296875 -36.4375 C 25.753906 -30.59375 27.914062 -25.054688 30.78125 -19.828125 C 33.65625 -14.597656 37.226562 -10.320312 41.5 -7 C 45.78125 -3.6875 50.675781 -2.03125 56.1875 -2.03125 C 61.695312 -2.03125 66.050781 -3.429688 69.25 -6.234375 C 72.457031 -9.046875 74.734375 -12.644531 76.078125 -17.03125 C 77.429688 -21.425781 78.109375 -25.984375 78.109375 -30.703125 C 78.109375 -36.109375 77.238281 -41.875 75.5 -48 C 73.757812 -54.132812 71.285156 -59.898438 68.078125 -65.296875 C 64.867188 -70.691406 61.015625 -74.992188 56.515625 -78.203125 C 52.015625 -81.410156 47.066406 -82.734375 41.671875 -82.171875 C 36.835938 -81.710938 32.984375 -80.050781 30.109375 -77.1875 C 27.242188 -74.320312 25.191406 -70.722656 23.953125 -66.390625 C 22.722656 -62.054688 22.109375 -57.472656 22.109375 -52.640625 Z M 22.109375 -52.640625 "/></g></g></g><g fill="#ffffff" fill-opacity="1"><g transform="translate(593.297395, 137.79868)"><g><path d="M 4.71875 0 L 4.71875 -2.359375 C 7.53125 -3.265625 9.359375 -5.148438 10.203125 -8.015625 C 11.046875 -10.878906 11.46875 -15.347656 11.46875 -21.421875 L 11.46875 -60.234375 C 11.46875 -65.179688 10.878906 -68.441406 9.703125 -70.015625 C 8.523438 -71.585938 6.863281 -72.828125 4.71875 -73.734375 L 4.71875 -76.09375 L 27 -85.875 L 28.6875 -84.53125 L 28.6875 -64.109375 C 31.269531 -70.179688 35.375 -75.128906 41 -78.953125 C 44.144531 -81.203125 47.375 -82.863281 50.6875 -83.9375 C 54.007812 -85.007812 57.695312 -85.546875 61.75 -85.546875 C 64.675781 -85.546875 67.207031 -85.148438 69.34375 -84.359375 C 71.476562 -83.566406 72.546875 -82.273438 72.546875 -80.484375 C 72.546875 -79.242188 72.125 -77.75 71.28125 -76 C 70.4375 -74.257812 69.171875 -72.742188 67.484375 -71.453125 C 65.796875 -70.160156 63.660156 -69.515625 61.078125 -69.515625 C 58.710938 -69.515625 55.8125 -69.9375 52.375 -70.78125 C 48.945312 -71.625 44.535156 -72.890625 39.140625 -74.578125 C 37.003906 -72.773438 34.78125 -70.128906 32.46875 -66.640625 C 30.164062 -63.148438 28.90625 -59.269531 28.6875 -55 L 28.6875 -21.421875 C 28.6875 -15.347656 29.109375 -10.878906 29.953125 -8.015625 C 30.796875 -5.148438 32.625 -3.265625 35.4375 -2.359375 L 35.4375 0 Z M 4.71875 0 "/></g></g></g><g fill="#ffffff" fill-opacity="1"><g transform="translate(669.391376, 137.79868)"><g><path d="M 5.0625 0 L 5.0625 -2.359375 C 7.875 -3.265625 9.703125 -5.148438 10.546875 -8.015625 C 11.390625 -10.878906 11.8125 -15.347656 11.8125 -21.421875 L 11.8125 -110.84375 C 11.8125 -115.789062 11.21875 -119.050781 10.03125 -120.625 C 8.851562 -122.207031 7.195312 -123.445312 5.0625 -124.34375 L 5.0625 -126.703125 L 27.328125 -136.5 L 29.015625 -135.140625 L 29.015625 -38.125 L 55.515625 -64.453125 C 60.910156 -69.847656 63.890625 -74.117188 64.453125 -77.265625 C 65.015625 -80.421875 64.453125 -82.28125 62.765625 -82.84375 L 62.765625 -84.359375 L 84.1875 -84.359375 L 84.1875 -82 C 81.488281 -81.207031 78.453125 -79.941406 75.078125 -78.203125 C 71.703125 -76.460938 67.878906 -73.453125 63.609375 -69.171875 L 52.8125 -58.375 L 72.890625 -22.109375 C 76.148438 -16.253906 79.269531 -11.5 82.25 -7.84375 C 85.226562 -4.1875 88.742188 -2.359375 92.796875 -2.359375 L 92.796875 0 L 79.296875 0 C 75.140625 0 71.09375 -1.488281 67.15625 -4.46875 C 63.21875 -7.445312 59.222656 -12.707031 55.171875 -20.25 L 41.171875 -46.90625 L 29.015625 -34.75 L 29.015625 -21.421875 C 29.015625 -15.347656 29.4375 -10.878906 30.28125 -8.015625 C 31.125 -5.148438 32.953125 -3.265625 35.765625 -2.359375 L 35.765625 0 Z M 5.0625 0 "/></g></g></g><g fill="#ffffff" fill-opacity="1"><g transform="translate(760.501733, 137.79868)"><g><path d="M 37.28125 1.34375 C 31.09375 1.34375 25.300781 0.554688 19.90625 -1.015625 C 14.507812 -2.585938 10.179688 -4.441406 6.921875 -6.578125 L 5.234375 -28.6875 L 6.921875 -29.015625 C 10.515625 -20.921875 15.265625 -14.3125 21.171875 -9.1875 C 27.078125 -4.070312 33.800781 -1.457031 41.34375 -1.34375 C 46.625 -1.238281 50.8125 -2.675781 53.90625 -5.65625 C 57 -8.632812 58.546875 -12.035156 58.546875 -15.859375 C 58.546875 -21.253906 56.492188 -25.300781 52.390625 -28 C 48.285156 -30.707031 42.578125 -33.1875 35.265625 -35.4375 C 29.410156 -37.226562 24.316406 -39.109375 19.984375 -41.078125 C 15.660156 -43.046875 12.34375 -45.578125 10.03125 -48.671875 C 7.726562 -51.765625 6.578125 -55.84375 6.578125 -60.90625 C 6.578125 -65.175781 7.726562 -69.195312 10.03125 -72.96875 C 12.34375 -76.738281 15.914062 -79.773438 20.75 -82.078125 C 25.582031 -84.390625 31.828125 -85.546875 39.484375 -85.546875 C 44.316406 -85.546875 49.09375 -85.148438 53.8125 -84.359375 C 58.539062 -83.566406 62.3125 -82.554688 65.125 -81.328125 L 65.96875 -62.765625 L 63.9375 -62.421875 C 61.125 -68.390625 57.210938 -73.335938 52.203125 -77.265625 C 47.203125 -81.203125 41.613281 -83.171875 35.4375 -83.171875 C 30.144531 -83.171875 25.894531 -81.929688 22.6875 -79.453125 C 19.488281 -76.984375 17.890625 -73.953125 17.890625 -70.359375 C 17.890625 -65.628906 19.941406 -62 24.046875 -59.46875 C 28.148438 -56.9375 33.96875 -54.378906 41.5 -51.796875 C 46 -50.335938 50.414062 -48.707031 54.75 -46.90625 C 59.082031 -45.101562 62.679688 -42.597656 65.546875 -39.390625 C 68.410156 -36.191406 69.84375 -31.722656 69.84375 -25.984375 C 69.84375 -21.710938 68.832031 -17.46875 66.8125 -13.25 C 64.789062 -9.03125 61.414062 -5.539062 56.6875 -2.78125 C 51.96875 -0.03125 45.5 1.34375 37.28125 1.34375 Z M 37.28125 1.34375 "/></g></g></g><g fill="#ffffff" fill-opacity="1"><g transform="translate(836.08954, 137.79868)"><g><path d="M 3.375 0 L 3.375 -2.359375 C 6.1875 -3.265625 8.015625 -5.148438 8.859375 -8.015625 C 9.703125 -10.878906 10.125 -15.347656 10.125 -21.421875 L 10.125 -110.84375 C 10.125 -115.789062 9.53125 -119.050781 8.34375 -120.625 C 7.164062 -122.207031 5.507812 -123.445312 3.375 -124.34375 L 3.375 -126.703125 L 25.640625 -136.5 L 27.328125 -135.140625 L 27.328125 -70.359375 C 31.941406 -74.179688 37.226562 -77.664062 43.1875 -80.8125 C 49.15625 -83.96875 55.398438 -85.546875 61.921875 -85.546875 C 69.679688 -85.546875 75.953125 -83.378906 80.734375 -79.046875 C 85.515625 -74.710938 87.90625 -67.597656 87.90625 -57.703125 L 87.90625 -21.421875 C 87.90625 -15.347656 88.328125 -10.878906 89.171875 -8.015625 C 90.015625 -5.148438 91.84375 -3.265625 94.65625 -2.359375 L 94.65625 0 L 63.9375 0 L 63.9375 -2.359375 C 66.75 -3.265625 68.578125 -5.148438 69.421875 -8.015625 C 70.265625 -10.878906 70.6875 -15.347656 70.6875 -21.421875 L 70.6875 -54.671875 C 70.6875 -62.316406 69.082031 -68.25 65.875 -72.46875 C 62.675781 -76.6875 57.925781 -78.796875 51.625 -78.796875 C 47.6875 -78.796875 43.804688 -77.835938 39.984375 -75.921875 C 36.160156 -74.015625 31.941406 -71.203125 27.328125 -67.484375 L 27.328125 -21.421875 C 27.328125 -15.347656 27.75 -10.878906 28.59375 -8.015625 C 29.4375 -5.148438 31.265625 -3.265625 34.078125 -2.359375 L 34.078125 0 Z M 3.375 0 "/></g></g></g><g fill="#ffffff" fill-opacity="1"><g transform="translate(934.117521, 137.79868)"><g><path d="M 50.28125 1.6875 C 44.769531 1.6875 39.34375 0.871094 34 -0.75 C 28.65625 -2.382812 23.816406 -4.914062 19.484375 -8.34375 C 15.148438 -11.78125 11.691406 -16.113281 9.109375 -21.34375 C 6.523438 -26.570312 5.234375 -32.785156 5.234375 -39.984375 C 5.234375 -46.847656 6.46875 -53.0625 8.9375 -58.625 C 11.414062 -64.195312 14.789062 -68.976562 19.0625 -72.96875 C 23.332031 -76.957031 28.164062 -80.050781 33.5625 -82.25 C 38.96875 -84.445312 44.539062 -85.546875 50.28125 -85.546875 C 55.5625 -85.546875 60.816406 -84.753906 66.046875 -83.171875 C 71.285156 -81.597656 76.125 -79.097656 80.5625 -75.671875 C 85.007812 -72.242188 88.550781 -67.882812 91.1875 -62.59375 C 93.832031 -57.3125 95.15625 -50.957031 95.15625 -43.53125 C 95.15625 -36.332031 93.773438 -29.921875 91.015625 -24.296875 C 88.265625 -18.671875 84.664062 -13.945312 80.21875 -10.125 C 75.78125 -6.300781 70.914062 -3.375 65.625 -1.34375 C 60.34375 0.675781 55.226562 1.6875 50.28125 1.6875 Z M 22.109375 -52.640625 C 22.109375 -47.691406 22.835938 -42.289062 24.296875 -36.4375 C 25.753906 -30.59375 27.914062 -25.054688 30.78125 -19.828125 C 33.65625 -14.597656 37.226562 -10.320312 41.5 -7 C 45.78125 -3.6875 50.675781 -2.03125 56.1875 -2.03125 C 61.695312 -2.03125 66.050781 -3.429688 69.25 -6.234375 C 72.457031 -9.046875 74.734375 -12.644531 76.078125 -17.03125 C 77.429688 -21.425781 78.109375 -25.984375 78.109375 -30.703125 C 78.109375 -36.109375 77.238281 -41.875 75.5 -48 C 73.757812 -54.132812 71.285156 -59.898438 68.078125 -65.296875 C 64.867188 -70.691406 61.015625 -74.992188 56.515625 -78.203125 C 52.015625 -81.410156 47.066406 -82.734375 41.671875 -82.171875 C 36.835938 -81.710938 32.984375 -80.050781 30.109375 -77.1875 C 27.242188 -74.320312 25.191406 -70.722656 23.953125 -66.390625 C 22.722656 -62.054688 22.109375 -57.472656 22.109375 -52.640625 Z M 22.109375 -52.640625 "/></g></g></g><g fill="#ffffff" fill-opacity="1"><g transform="translate(1032.989031, 137.79868)"><g><path d="M 50.609375 1.515625 C 46.785156 1.515625 43.101562 1.007812 39.5625 0 C 36.019531 -1.007812 32.785156 -2.359375 29.859375 -4.046875 L 29.859375 24.125 C 29.859375 30.195312 30.28125 34.664062 31.125 37.53125 C 31.96875 40.40625 33.796875 42.289062 36.609375 43.1875 L 36.609375 45.546875 L 5.90625 45.546875 L 5.90625 43.1875 C 8.71875 42.289062 10.546875 40.40625 11.390625 37.53125 C 12.234375 34.664062 12.65625 30.195312 12.65625 24.125 L 12.65625 -60.234375 C 12.65625 -65.179688 12.0625 -68.441406 10.875 -70.015625 C 9.695312 -71.585938 8.039062 -72.828125 5.90625 -73.734375 L 5.90625 -76.09375 L 28.171875 -85.875 L 29.859375 -84.53125 L 29.859375 -73.5625 C 34.359375 -76.707031 39.28125 -79.488281 44.625 -81.90625 C 49.96875 -84.332031 55.5625 -85.546875 61.40625 -85.546875 C 68.382812 -85.546875 74.429688 -83.769531 79.546875 -80.21875 C 84.671875 -76.675781 88.632812 -71.835938 91.4375 -65.703125 C 94.25 -59.578125 95.65625 -52.632812 95.65625 -44.875 C 95.65625 -36.332031 93.828125 -28.546875 90.171875 -21.515625 C 86.523438 -14.484375 81.328125 -8.882812 74.578125 -4.71875 C 67.828125 -0.5625 59.835938 1.515625 50.609375 1.515625 Z M 29.859375 -28.171875 C 29.859375 -25.253906 30.703125 -22.25 32.390625 -19.15625 C 34.078125 -16.0625 36.269531 -13.191406 38.96875 -10.546875 C 41.664062 -7.898438 44.617188 -5.757812 47.828125 -4.125 C 51.035156 -2.5 54.210938 -1.6875 57.359375 -1.6875 C 63.429688 -1.6875 68.097656 -3.144531 71.359375 -6.0625 C 74.628906 -8.988281 76.851562 -12.785156 78.03125 -17.453125 C 79.207031 -22.128906 79.796875 -27 79.796875 -32.0625 C 79.796875 -35.09375 79.539062 -38.632812 79.03125 -42.6875 C 78.53125 -46.738281 77.660156 -50.84375 76.421875 -55 C 75.191406 -59.164062 73.421875 -63.046875 71.109375 -66.640625 C 68.804688 -70.242188 65.910156 -73.140625 62.421875 -75.328125 C 58.941406 -77.523438 54.671875 -78.625 49.609375 -78.625 C 45.890625 -78.625 42.398438 -77.863281 39.140625 -76.34375 C 35.878906 -74.820312 32.785156 -72.9375 29.859375 -70.6875 Z M 29.859375 -28.171875 "/></g></g></g></g></g></svg>